{
.appVersion = "1167";
classes = (
{
automatic = 1;
code = "A Aacute Abreve Acircumflex Adieresis Agrave Amacron Aogonek Aring Atilde AE B C Cacute Ccaron Ccedilla Cdotaccent D Eth Dcaron Dcroat E Eacute Ecaron Ecircumflex Edieresis Edotaccent Egrave Emacron Eogonek F G Gbreve Gcommaaccent Gdotaccent H Hbar I Iacute Icircumflex Idieresis Idotaccent Igrave Imacron Iogonek J K Kcommaaccent L Lacute Lcaron Lcommaaccent Lslash M N Nacute Ncaron Ncommaaccent Eng Ntilde O Oacute Ocircumflex Odieresis Ograve Ohungarumlaut Omacron Oslash Otilde OE P Thorn Q R Racute Rcaron Rcommaaccent S Sacute Scaron Scedilla Scommaaccent T Tbar Tcaron Tcedilla Tcommaaccent U Uacute Ucircumflex Udieresis Ugrave Uhungarumlaut Umacron Uogonek Uring V W Wacute Wcircumflex Wdieresis Wgrave X Y Yacute Ycircumflex Ydieresis Ygrave Z Zacute Zcaron Zdotaccent a aacute abreve acircumflex adieresis agrave amacron aogonek aring atilde ae b c cacute ccaron ccedilla cdotaccent d eth dcaron dcroat e eacute ecaron ecircumflex edieresis edotaccent egrave emacron eogonek f g gbreve gcommaaccent gdotaccent h hbar i idotless iacute icircumflex idieresis idotaccent igrave imacron iogonek j j.alt k kcommaaccent l lacute lcaron lcommaaccent lslash m n nacute ncaron ncommaaccent eng ntilde o oacute ocircumflex odieresis ograve ohungarumlaut omacron oslash otilde oe p thorn q r racute rcaron rcommaaccent s sacute scaron scedilla scommaaccent germandbls t tbar tcaron tcedilla tcommaaccent u uacute ucircumflex udieresis ugrave uhungarumlaut umacron uogonek uring v w wacute wcircumflex wdieresis wgrave x y yacute ycircumflex ydieresis ygrave z zacute zcaron zdotaccent";
name = AllLetters;
},
{
code = "a b c d e f g h i j k l m n o p q r s t u v w x y z";
name = LowerCase;
},
{
code = a;
name = Medial;
},
{
code = "";
name = Initial;
},
{
automatic = 1;

glyphs = (
{
glyphname = A;
lastChange = "2018-12-09 14:28:01 +0000";
layers = (
{
layerId = "156A2E6C-2CEB-4630-8DE9-705D0EDBB142";
paths = (
{
closed = 1;
nodes = (
"691.25 0 LINE",
"440.958 750 LINE",
"309.043 750 LINE",
"58.75 0 LINE",
"190.661 0 LINE",
"253.236 187.5 LINE",
"496.765 187.5 LINE",
"559.339 0 LINE"
);
},
{
closed = 1;
nodes = (
"375 552.356 LINE",
"455.048 312.5 LINE",
"294.952 312.5 LINE"
);
}
);
width = 750;
}
);
leftKerningGroup = A;
rightKerningGroup = A;
unicode = 0041;
},
{
glyphname = AE;
lastChange = "2018-12-05 10:47:51 +0000";
layers = (
{
layerId = "156A2E6C-2CEB-4630-8DE9-705D0EDBB142";
paths = (
{
closed = 1;
nodes = (
"1007.373 750 LINE",
"437.494 750 LINE",
"62.5 0 LINE",
"202.252 0 LINE",
"296 187.5 LINE",
"569.873 187.5 LINE",
"569.873 0 LINE",
"1007.373 0 LINE",
"1007.373 125 LINE",
"694.873 125 LINE",
"694.873 312.5 LINE",
"1007.373 312.5 LINE",
"1007.373 437.5 LINE",
"694.873 437.5 LINE",
"694.873 625 LINE",
"1007.373 625 LINE"
);
},
{
closed = 1;
nodes = (
"358.499 312.5 LINE",
"514.748 625 LINE",
"569.873 625 LINE",
"569.873 312.5 LINE"
);
}
);
width = 1069.87;
}
);
leftKerningGroup = AE;
rightKerningGroup = E;
unicode = 00C6;
},
{
glyphname = Eth;
lastChange = "2018-12-05 10:57:55 +0000";
layers = (
{
layerId = "156A2E6C-2CEB-4630-8DE9-705D0EDBB142";
paths = (
{
closed = 1;
nodes = (
"187.5 750 LINE",
"187.5 425 LINE",
"62.5 425 LINE",
"62.5 325 LINE",
"187.5 325 LINE",
"187.5 0 LINE",
"437.5 0 LINE",
"644.607 0 OFFCURVE",
"812.5 167.893 OFFCURVE",
"812.5 375 CURVE",
"812.5 582.107 OFFCURVE",
"644.607 750 OFFCURVE",
"437.5 750 CURVE"
);
},
{
closed = 1;
nodes = (
"312.5 125 LINE",
"312.5 325 LINE",
"437.5 325 LINE",
"437.5 425 LINE",
"312.5 425 LINE",
"312.5 625 LINE",
"437.5 625 LINE",
"575.571 625 OFFCURVE",
"687.5 513.072 OFFCURVE",
"687.5 375 CURVE",
"687.5 236.929 OFFCURVE",
"575.572 125 OFFCURVE",
"437.5 125 CURVE"
);
}
);
width = 875;
}
);
leftKerningGroup = Eth;
rightKerningGroup = O;
unicode = 00D0;
},
{
glyphname = Hbar;
lastChange = "2018-10-23 10:01:59 +0000";
layers = (
{
layerId = "156A2E6C-2CEB-4630-8DE9-705D0EDBB142";
paths = (
{
closed = 1;
nodes = (
"750 625 LINE",
"750 750 LINE",
"625 750 LINE",
"625 625 LINE",
"312.5 625 LINE",
"312.5 750 LINE",
"187.5 750 LINE",
"187.5 625 LINE",
"62.5 625 LINE",
"62.5 525 LINE",
"187.5 525 LINE",
"187.5 0 LINE",
"312.5 0 LINE",
"312.5 312.5 LINE",
"625 312.5 LINE",
"625 0 LINE",
"750 0 LINE",
"750 525 LINE",
"875 525 LINE",
"875 625 LINE"
);
},
{
closed = 1;
nodes = (
"312.5 437.5 LINE",
"312.5 525 LINE",
"625 525 LINE",
"625 437.5 LINE"
);
}
);
width = 937.5;
}
);
leftKerningGroup = Hbar;
rightKerningGroup = Hbar;
unicode = 0126;
},
{
glyphname = K;
lastChange = "2018-09-19 09:24:26 +0000";
layers = (
{
layerId = "156A2E6C-2CEB-4630-8DE9-705D0EDBB142";
paths = (
{
closed = 1;
nodes = (
"750 0 LINE",
"356.875 393.125 LINE",
"713.125 750 LINE",
"536.875 750 LINE",
"187.5 401.25 LINE",
"187.5 750 LINE",
"62.5 750 LINE",
"62.5 0 LINE",
"187.5 0 LINE",
"187.5 224.375 LINE",
"268.125 305 LINE",
"573.125 0 LINE"
);
}
);
width = 812.5;
}
);
leftKerningGroup = B;
rightKerningGroup = K;
unicode = 004B;
},
{
glyphname = Lslash;
lastChange = "2018-10-23 09:46:08 +0000";
layers = (
{
components = (
{
name = L;
transform = "{1, 0, 0, 1, 125, 0}";
}
);
layerId = "156A2E6C-2CEB-4630-8DE9-705D0EDBB142";
paths = (
{
closed = 1;
nodes = (
"437.5 418.059 LINE",
"437.5 519.444 LINE",
"62.5 456.941 LINE",
"62.5 355.556 LINE"
);
}
);
width = 625;
}
);
leftKerningGroup = Eth;
rightKerningGroup = L;
unicode = 0141;
},
{
glyphname = M;
lastChange = "2018-12-06 10:30:17 +0000";
layers = (
{
layerId = "156A2E6C-2CEB-4630-8DE9-705D0EDBB142";
paths = (
{
closed = 1;
nodes = (
"437.5 162.5 LINE",
"192.707 750 LINE",
"62.5 750 LINE",
"62.5 0 LINE",
"187.5 0 LINE",
"187.5 437.5 LINE",
"369.793 0 LINE",
"505.207 0 LINE",
"687.5 437.5 LINE",
"687.5 0 LINE",
"812.5 0 LINE",
"812.5 750 LINE",
"682.292 750 LINE"
);
}
);
width = 875;
}
);
leftKerningGroup = B;
rightKerningGroup = H;
unicode = 004D;
},
{
glyphname = N;
lastChange = "2018-09-19 09:15:55 +0000";
layers = (
{
layerId = "156A2E6C-2CEB-4630-8DE9-705D0EDBB142";
paths = (
{
closed = 1;
nodes = (
"562.5 750 LINE",
"562.5 206.423 LINE",
"200.115 750 LINE",
"62.5 750 LINE",
"62.5 0 LINE",
"187.5 0 LINE",
"187.5 543.579 LINE",
"549.886 0 LINE",
"687.5 0 LINE",
"687.5 750 LINE"
);
}
);
width = 750;
}
);
leftKerningGroup = B;
rightKerningGroup = H;
unicode = 004E;
},
{
glyphname = Eng;
lastChange = "2018-10-23 10:19:52 +0000";
layers = (
{
components = (
{
name = N;
}
);
layerId = "156A2E6C-2CEB-4630-8DE9-705D0EDBB142";
paths = (
{
closed = 1;
nodes = (
"482.437 -71.373 OFFCURVE",
"440.473 -66.798 OFFCURVE",
"440.473 -66.798 CURVE",
"426.12 -159.885 LINE",
"426.12 -159.885 OFFCURVE",
"494.987 -175.623 OFFCURVE",
"527.444 -175.623 CURVE",
"638.615 -175.623 OFFCURVE",
"687.5 -93.347 OFFCURVE",
"687.5 0 CURVE",
"549.885 0 LINE",
"572.491 -35.403 OFFCURVE",
"552.269 -71.373 OFFCURVE",
"511.476 -71.373 CURVE"
);
}
);
width = 750;
}
);
leftKerningGroup = B;
rightKerningGroup = H;
unicode = 014A;
},
{
glyphname = Oslash;
lastChange = "2018-10-22 09:26:04 +0000";
layers = (
{
layerId = "156A2E6C-2CEB-4630-8DE9-705D0EDBB142";
paths = (
{
closed = 1;
nodes = (
"792.432 645.068 LINE",
"707.568 729.932 LINE",
"656.564 678.928 LINE",
"594.894 723.459 OFFCURVE",
"519.38 750 OFFCURVE",
"437.5 750 CURVE",
"230.393 750 OFFCURVE",
"62.5 582.108 OFFCURVE",
"62.5 375 CURVE",
"62.5 293.121 OFFCURVE",
"89.041 217.606 OFFCURVE",
"133.572 155.936 CURVE",
"82.568 104.932 LINE",
"167.432 20.068 LINE",
"218.436 71.072 LINE",
"280.106 26.541 OFFCURVE",
"355.621 0 OFFCURVE",
"437.5 0 CURVE",
"644.608 0 OFFCURVE",
"812.5 167.894 OFFCURVE",
"812.5 375 CURVE",
"812.5 456.88 OFFCURVE",
"785.959 532.394 OFFCURVE",
"741.428 594.064 CURVE"
);
},
{
closed = 1;
nodes = (
"187.5 513.072 OFFCURVE",
"299.429 625 OFFCURVE",
"437.5 625 CURVE",
"484.761 625 OFFCURVE",
"528.798 611.646 OFFCURVE",
"566.493 588.856 CURVE",
"223.645 246.008 LINE",
"200.856 283.704 OFFCURVE",
"187.5 327.739 OFFCURVE",
"187.5 375 CURVE"
);
},
{
closed = 1;
nodes = (
"390.239 125 OFFCURVE",
"346.204 138.356 OFFCURVE",
"308.508 161.145 CURVE",
"651.357 503.993 LINE",
"674.144 466.298 OFFCURVE",
"687.5 422.263 OFFCURVE",
"687.5 375 CURVE",
"687.5 236.929 OFFCURVE",
"575.571 125 OFFCURVE",
"437.5 125 CURVE"
);
}
);
width = 875;
}
);
leftKerningGroup = O;
rightKerningGroup = O;
unicode = 00D8;
},
{
glyphname = Q;
lastChange = "2018-12-09 14:43:39 +0000";
layers = (
{
components = (
{
name = O;
}
);
layerId = "156A2E6C-2CEB-4630-8DE9-705D0EDBB142";
paths = (
{
closed = 1;
nodes = (
"531.25 343.75 LINE",
"442.86 255.36 LINE",
"698.226 0 LINE",
"875 0 LINE"
);
}
);
width = 931.25;
}
);
leftKerningGroup = O;
rightKerningGroup = Q;
unicode = 0051;
},
{
glyphname = R;
lastChange = "2018-12-06 10:38:23 +0000";
layers = (
{
components = (
{
name = "rect-600.comp";
transform = "{1, 0, 0, 1, 62.5, 0}";
},
{
name = "oval-half.comp";
transform = "{0, 1, 1, 0, 343.75, 250}";
},
{
name = "rect-200.comp";
transform = "{0, 1, 1, 0, 93.75, 250}";
},
{
name = "rect-200.comp";
transform = "{0, 1, 1, 0, 93.75, 625}";
}
);
layerId = "156A2E6C-2CEB-4630-8DE9-705D0EDBB142";
paths = (
{
closed = 1;
nodes = (
"375 375 LINE",
"270.996 305.664 LINE",
"474.772 0 LINE",
"625 0 LINE"
);
}
);
width = 681.25;
}
);
leftKerningGroup = B;
rightKerningGroup = R;
unicode = 0052;
},
{
glyphname = S;
lastChange = "2018-12-09 14:47:31 +0000";
layers = (
{
layerId = "156A2E6C-2CEB-4630-8DE9-705D0EDBB142";
paths = (
{
closed = 1;
nodes = (
"250.515 750 OFFCURVE",
"205.058 731.395 OFFCURVE",
"167.899 695.37 CURVE SMOOTH",
"131.347 659.933 OFFCURVE",
"112.389 620.367 OFFCURVE",
"112.389 570.854 CURVE SMOOTH",
"112.389 532.836 OFFCURVE",
"121.034 494.965 OFFCURVE",
"147.459 459.341 CURVE SMOOTH",
"173.95 423.629 OFFCURVE",
"215.302 385.391 OFFCURVE",
"293.14 323.166 CURVE SMOOTH",
"334.338 290.233 OFFCURVE",
"352.998 272.225 OFFCURVE",
"365.832 256.651 CURVE SMOOTH",
"378.321 241.496 OFFCURVE",
"385.671 223.278 OFFCURVE",
"385.671 201.964 CURVE SMOOTH",
"385.671 186.273 OFFCURVE",
"378.222 169.226 OFFCURVE",
"365.832 158.881 CURVE SMOOTH",
"347.436 143.493 OFFCURVE",
"329.938 138.596 OFFCURVE",
"300.366 138.596 CURVE SMOOTH",
"249.472 138.596 OFFCURVE",
"210.651 174.232 OFFCURVE",
"181.036 217.248 CURVE",
"63.75 145.919 LINE",
"91.785 102.581 OFFCURVE",
"120.83 68.017 OFFCURVE",
"158.955 41.694 CURVE SMOOTH",
"199.604 13.627 OFFCURVE",
"249.453 0 OFFCURVE",
"300.366 0 CURVE SMOOTH",
"365.529 0 OFFCURVE",
"431.243 21.758 OFFCURVE",
"473.895 63.831 CURVE SMOOTH",
"515.825 105.191 OFFCURVE",
"531.245 148.812 OFFCURVE",
"531.245 195.569 CURVE SMOOTH",
"531.245 232.431 OFFCURVE",
"523.075 267.586 OFFCURVE",
"508.347 292.322 CURVE SMOOTH",
"494.066 316.311 OFFCURVE",
"476.92 338.951 OFFCURVE",
"449.317 366.784 CURVE SMOOTH",
"438.309 378.111 OFFCURVE",
"408.736 406.266 OFFCURVE",
"356.185 448.822 CURVE SMOOTH",
"298.238 495.748 OFFCURVE",
"274.623 519.644 OFFCURVE",
"264.561 534.577 CURVE SMOOTH",
"256.554 546.462 OFFCURVE",
"252.034 556.308 OFFCURVE",
"252.034 570.209 CURVE SMOOTH",
"252.034 582.479 OFFCURVE",
"256.075 594.241 OFFCURVE",
"266.415 604.308 CURVE SMOOTH",
"277.095 614.705 OFFCURVE",
"292.081 621.979 OFFCURVE",
"309.881 621.979 CURVE SMOOTH",
"343.984 621.979 OFFCURVE",
"370.046 605.771 OFFCURVE",
"412.7 554.876 CURVE",
"516.751 626.641 LINE",
"489.236 674.806 OFFCURVE",
"452.075 707.36 OFFCURVE",
"409.348 728.864 CURVE SMOOTH",
"377.014 745.136 OFFCURVE",
"338.005 750 OFFCURVE",
"305.96 750 CURVE SMOOTH"
);
}
);
width = 587.5;
}
);
leftKerningGroup = S;
rightKerningGroup = S;
unicode = 0053;
},
{
glyphname = Tbar;
lastChange = "2018-10-23 09:24:08 +0000";
layers = (
{
layerId = "156A2E6C-2CEB-4630-8DE9-705D0EDBB142";
paths = (
{
closed = 1;
nodes = (
"562.5 750 LINE",
"62.5 750 LINE",
"62.5 625 LINE",
"250 625 LINE",
"250 437.5 LINE",
"125 437.5 LINE",
"125 337.5 LINE",
"250 337.5 LINE",
"250 0 LINE",
"375 0 LINE",
"375 337.5 LINE",
"500 337.5 LINE",
"500 437.5 LINE",
"375 437.5 LINE",
"375 625 LINE",
"562.5 625 LINE"
);
}
);
width = 625;
}
);
unicode = 0166;
},
{
glyphname = Uogonek;
lastChange = "2018-10-22 10:34:52 +0000";
layers = (
{
components = (
{
name = U;
}
);
layerId = "156A2E6C-2CEB-4630-8DE9-705D0EDBB142";
paths = (
{
closed = 1;
nodes = (
"312.5 0 OFFCURVE",
"299.472 -12.151 OFFCURVE",
"295.788 -16.788 CURVE",
"271.427 -47.449 OFFCURVE",
"262.155 -75.669 OFFCURVE",
"262.51 -113.69 CURVE",
"263.215 -189.25 OFFCURVE",
"325.316 -250 OFFCURVE",
"400.879 -250 CURVE",
"437.5 -250 LINE",
"437.5 -150 LINE",
"410.582 -150 LINE",
"379.579 -150 OFFCURVE",
"346.824 -124.318 OFFCURVE",
"346.824 -88.496 CURVE",
"346.824 -47.212 OFFCURVE",
"367.046 -6.849 OFFCURVE",
"427.247 27.832 CURVE",
"312.5 0 LINE"
);
}
);
width = 625;
}
);
leftKerningGroup = U;
rightKerningGroup = U;
unicode = 0172;
},
{
glyphname = V;
lastChange = "2018-12-06 11:21:22 +0000";
layers = (
{
layerId = "156A2E6C-2CEB-4630-8DE9-705D0EDBB142";
paths = (
{
closed = 1;
nodes = (
"315.293 0 LINE",
"65 750 LINE",
"196.911 750 LINE",
"381.25 197.644 LINE",
"565.589 750 LINE",
"697.5 750 LINE",
"447.208 0 LINE"
);
}
);
width = 762.5;
}
);
leftKerningGroup = V;
rightKerningGroup = V;
unicode = 0056;
},
{
glyphname = W;
lastChange = "2018-12-09 14:29:03 +0000";
layers = (
{
layerId = "156A2E6C-2CEB-4630-8DE9-705D0EDBB142";
paths = (
{
closed = 1;
nodes = (
"810.101 750 LINE",
"687.217 257.69 LINE",
"564.325 750 LINE",
"435.675 750 LINE",
"312.784 257.69 LINE",
"189.899 750 LINE",
"61.25 750 LINE",
"248.459 0 LINE",
"377.109 0 LINE",
"500 492.31 LINE",
"622.891 0 LINE",
"751.541 0 LINE",
"938.75 750 LINE"
);
}
);
width = 1000;
}
);
leftKerningGroup = W;
rightKerningGroup = W;
unicode = 0057;
},
{
glyphname = X;
lastChange = "2018-12-06 11:21:56 +0000";
layers = (
{
layerId = "156A2E6C-2CEB-4630-8DE9-705D0EDBB142";
paths = (
{
closed = 1;
nodes = (
"753.75 750 LINE",
"602.491 750 LINE",
"412.5 481.274 LINE",
"223.759 750 LINE",
"61.25 750 LINE",
"329.371 375 LINE",
"61.25 0 LINE",
"213.759 0 LINE",
"406.25 267.476 LINE",
"597.491 0 LINE",
"755 0 LINE",
"489.379 371.25 LINE"
);
}
);
width = 812.5;
}
);
leftKerningGroup = X;
rightKerningGroup = X;
unicode = 0058;
},
{
glyphname = Y;
lastChange = "2018-12-09 09:58:16 +0000";
layers = (
{
layerId = "156A2E6C-2CEB-4630-8DE9-705D0EDBB142";
paths = (
{
closed = 1;
nodes = (
"519.691 750 LINE",
"362.5 449.158 LINE",
"205.309 750 LINE",
"62.5 750 LINE",
"300 295.459 LINE",
"300 0 LINE",
"425 0 LINE",
"425 295.459 LINE",
"662.5 750 LINE"
);
}
);
width = 725;
}
);
leftKerningGroup = Y;
rightKerningGroup = Y;
unicode = 0059;
},
{
glyphname = Z;
lastChange = "2018-12-06 11:22:28 +0000";
layers = (
{
layerId = "156A2E6C-2CEB-4630-8DE9-705D0EDBB142";
paths = (
{
closed = 1;
nodes = (
"562.5 750 LINE",
"62.5 750 LINE",
"62.5 625 LINE",
"415.471 625 LINE",
"62.5 134.762 LINE",
"62.5 0 LINE",
"562.5 0 LINE",
"562.5 125 LINE",
"209.529 125 LINE",
"562.5 615.237 LINE"
);
}
);
width = 625;
}
);
leftKerningGroup = Z;
rightKerningGroup = Z;
unicode = 005A;
},
{
glyphname = a;
lastChange = "2018-12-09 10:23:28 +0000";
layers = (
{
layerId = "156A2E6C-2CEB-4630-8DE9-705D0EDBB142";
paths = (
{
closed = 1;
nodes = (
"428.343 464.25 LINE",
"390.791 486.797 OFFCURVE",
"346.989 500 OFFCURVE",
"300 500 CURVE",
"161.929 500 OFFCURVE",
"50 388.072 OFFCURVE",
"50 250 CURVE",
"50 111.929 OFFCURVE",
"161.929 0 OFFCURVE",
"300 0 CURVE",
"345.59 0 OFFCURVE",
"388.199 12.401 OFFCURVE",
"425 33.719 CURVE",
"425 0 LINE",
"550 0 LINE",
"550 500 LINE",
"432.812 500 LINE"
);
},
{
closed = 1;
nodes = (
"230.965 125 OFFCURVE",
"175 180.965 OFFCURVE",
"175 250 CURVE",
"175 319.035 OFFCURVE",
"230.965 375 OFFCURVE",
"300 375 CURVE",
"369.035 375 OFFCURVE",
"425 319.035 OFFCURVE",
"425 250 CURVE",
"425 180.965 OFFCURVE",
"369.035 125 OFFCURVE",
"300 125 CURVE"
);
}
);
width = 612.5;
},
{
associatedMasterId = "156A2E6C-2CEB-4630-8DE9-705D0EDBB142";
layerId = "D2666722-6A6B-436F-9503-4E8FDBECF891";
paths = (
{
closed = 1;
nodes = (
"437.5 466.25 LINE",
"401.25 487.5 OFFCURVE",
"357.5 500 OFFCURVE",
"312.5 500 CURVE",
"175 500 OFFCURVE",
"62.5 387.5 OFFCURVE",
"62.5 250 CURVE",
"62.5 112.5 OFFCURVE",
"175 0 OFFCURVE",
"312.5 0 CURVE",
"357.5 0 OFFCURVE",
"401.25 12.5 OFFCURVE",
"437.5 33.75 CURVE",
"437.5 0 LINE",
"562.5 0 LINE",
"562.5 500 LINE",
"437.5 500 LINE"
);
},
{
closed = 1;
nodes = (
"242.5 126.25 OFFCURVE",
"187.5 181.25 OFFCURVE",
"187.5 251.25 CURVE",
"187.5 320 OFFCURVE",
"242.5 376.25 OFFCURVE",
"312.5 376.25 CURVE",
"381.25 376.25 OFFCURVE",
"437.5 320 OFFCURVE",
"437.5 251.25 CURVE",
"437.5 181.25 OFFCURVE",
"381.25 126.25 OFFCURVE",
"312.5 126.25 CURVE"
);
}
);
width = 625;
}
);
leftKerningGroup = a;
rightKerningGroup = a;
unicode = 0061;
},
{
glyphname = ae;
lastChange = "2018-10-22 09:56:51 +0000";
layers = (
{
layerId = "156A2E6C-2CEB-4630-8DE9-705D0EDBB142";
paths = (
{
closed = 1;
nodes = (
"937.5 388.074 OFFCURVE",
"825.571 500 OFFCURVE",
"687.5 500 CURVE",
"616.699 500 OFFCURVE",
"552.908 470.441 OFFCURVE",
"507.422 423.145 CURVE",
"462.483 473.004 OFFCURVE",
"394.768 500 OFFCURVE",
"312.5 500 CURVE",
"174.649 500 OFFCURVE",
"99.849 425.946 OFFCURVE",
"76.294 377.617 CURVE",
"188.571 322.528 LINE",
"198.074 341.313 OFFCURVE",
"242.194 375 OFFCURVE",
"312.5 375 CURVE",
"377.856 375 OFFCURVE",
"424.332 350.45 OFFCURVE",
"439.346 305.821 CURVE",
"233.475 305.821 OFFCURVE",
"62.5 279.147 OFFCURVE",
"62.5 150.488 CURVE",
"62.5 82.37 OFFCURVE",
"111.96 0 OFFCURVE",
"305.211 0 CURVE",
"390.19 0 OFFCURVE",
"456.667 34.09 OFFCURVE",
"501.454 83.423 CURVE",
"547.228 32.335 OFFCURVE",
"613.507 0 OFFCURVE",
"687.5 0 CURVE",
"756.535 0 OFFCURVE",
"831.007 22.26 OFFCURVE",
"875 62.5 CURVE",
"800.977 145.273 LINE",
"770.917 121.594 OFFCURVE",
"735.825 108.751 OFFCURVE",
"689.136 108.751 CURVE",
"655.457 108.751 OFFCURVE",
"626.244 121.594 OFFCURVE",
"608.855 135.602 CURVE",
"587.682 152.657 OFFCURVE",
"574.69 171.477 OFFCURVE",
"568.372 193.75 CURVE",
"934.155 193.75 LINE",
"936.5 209.451 OFFCURVE",
"937.5 241.138 OFFCURVE",
"937.5 250 CURVE"
);
},
{
closed = 1;
nodes = (
"228.892 108.968 OFFCURVE",
"192.255 127.921 OFFCURVE",
"192.255 151.537 CURVE",
"192.255 186.606 OFFCURVE",
"295.77 199.091 OFFCURVE",
"439.732 199.091 CURVE",
"430.835 154.03 OFFCURVE",
"379.349 108.968 OFFCURVE",
"303.755 108.968 CURVE"
);
},
{
closed = 1;
nodes = (
"583.63 350.365 OFFCURVE",
"632.874 385 OFFCURVE",
"687.5 385 CURVE",
"743.376 385 OFFCURVE",
"793.871 352.864 OFFCURVE",
"809.129 303.751 CURVE",
"567.12 303.751 LINE"
);
}
);
width = 1000;
}
);
leftKerningGroup = a;
rightKerningGroup = o;
unicode = 00E6;
},
{
glyphname = c;
lastChange = "2018-12-09 14:38:02 +0000";
layers = (
{
layerId = "156A2E6C-2CEB-4630-8DE9-705D0EDBB142";
paths = (
{
closed = 1;
nodes = (
"243.465 125 OFFCURVE",
"187.5 180.965 OFFCURVE",
"187.5 250 CURVE",
"187.5 319.035 OFFCURVE",
"243.465 375 OFFCURVE",
"312.5 375 CURVE",
"347.018 375 OFFCURVE",
"378.267 361.008 OFFCURVE",
"400.888 338.388 CURVE",
"489.276 426.776 LINE",
"444.034 472.017 OFFCURVE",
"381.535 500 OFFCURVE",
"312.5 500 CURVE",
"174.429 500 OFFCURVE",
"62.5 388.072 OFFCURVE",
"62.5 250 CURVE",
"62.5 111.929 OFFCURVE",
"174.429 0 OFFCURVE",
"312.5 0 CURVE",
"381.535 0 OFFCURVE",
"444.034 27.983 OFFCURVE",
"489.276 73.224 CURVE",
"400.888 161.612 LINE",
"378.267 138.991 OFFCURVE",
"347.018 125 OFFCURVE",
"312.5 125 CURVE"
);
}
);
width = 520;
}
);
leftKerningGroup = a;
rightKerningGroup = c;
unicode = 0063;
},
{
glyphname = eth;
lastChange = "2018-12-06 10:00:38 +0000";
layers = (
{
layerId = "156A2E6C-2CEB-4630-8DE9-705D0EDBB142";
paths = (
{
closed = 1;
nodes = (
"452.933 676.476 LINE",
"391.562 759.729 LINE",
"302.304 698.842 LINE",
"249.552 728.456 OFFCURVE",
"175.905 744.381 OFFCURVE",
"112.5 746.156 CURVE",
"112.5 637.928 LINE",
"129.153 637.928 OFFCURVE",
"173.942 630.756 OFFCURVE",
"186.888 623.648 CURVE",
"111.112 572.878 LINE",
"177.183 492.551 LINE",
"285.761 564.32 LINE",
"308.573 546.759 OFFCURVE",
"338.067 509.06 OFFCURVE",
"350.957 487.502 CURVE",
"335.579 491.389 OFFCURVE",
"319.645 493.321 OFFCURVE",
"300 493.321 CURVE",
"161.929 493.321 OFFCURVE",
"50 382.257 OFFCURVE",
"50 250 CURVE",
"50 111.929 OFFCURVE",
"161.929 0 OFFCURVE",
"300 0 CURVE",
"438.071 0 OFFCURVE",
"550 112.549 OFFCURVE",
"550 250 CURVE",
"550 391.055 OFFCURVE",
"510.075 491.083 OFFCURVE",
"389.923 632.799 CURVE"
);
},
{
closed = 1;
nodes = (
"230.965 121.725 OFFCURVE",
"175 175.962 OFFCURVE",
"175 250 CURVE",
"175 325.116 OFFCURVE",
"230.965 378.243 OFFCURVE",
"300 378.243 CURVE",
"369.035 378.243 OFFCURVE",
"423.349 323.421 OFFCURVE",
"423.349 250 CURVE",
"423.349 176.386 OFFCURVE",
"369.035 121.725 OFFCURVE",
"300 121.725 CURVE"
);
}
);
width = 600;
}
);
leftKerningGroup = a;
unicode = 00F0;
},
{
glyphname = dcroat;
lastChange = "2018-12-06 10:00:48 +0000";
layers = (
{
layerId = "156A2E6C-2CEB-4630-8DE9-705D0EDBB142";
paths = (
{
closed = 1;
nodes = (
"550 662.5 LINE",
"550 750 LINE",
"425 750 LINE",
"425 662.5 LINE",
"300 662.5 LINE",
"300 562.5 LINE",
"425 562.5 LINE",
"425 466.281 LINE",
"388.199 487.599 OFFCURVE",
"345.59 500 OFFCURVE",
"300 500 CURVE",
"161.929 500 OFFCURVE",
"50 388.071 OFFCURVE",
"50 250 CURVE",
"50 111.928 OFFCURVE",
"161.929 0 OFFCURVE",
"300 0 CURVE",
"345.59 0 OFFCURVE",
"388.199 12.399 OFFCURVE",
"425 33.717 CURVE",
"425 0 LINE",
"550 0 LINE",
"550 562.5 LINE",
"675 562.5 LINE",
"675 662.5 LINE"
);
},
{
closed = 1;
nodes = (
"230.965 125 OFFCURVE",
"175 180.965 OFFCURVE",
"175 250 CURVE",
"175 319.035 OFFCURVE",
"230.965 375 OFFCURVE",
"300 375 CURVE",
"369.035 375 OFFCURVE",
"425 319.035 OFFCURVE",
"425 250 CURVE",
"425 180.965 OFFCURVE",
"369.035 125 OFFCURVE",
"300 125 CURVE"
);
}
);
width = 737.5;
}
);
leftKerningGroup = a;
rightKerningGroup = Hbar;
unicode = 0111;
},
{
glyphname = e;
lastChange = "2018-12-06 10:57:27 +0000";
layers = (
{
layerId = "156A2E6C-2CEB-4630-8DE9-705D0EDBB142";
paths = (
{
closed = 1;
nodes = (
"161.929 500 OFFCURVE",
"50 388.073 OFFCURVE",
"50 250 CURVE SMOOTH",
"50 111.929 OFFCURVE",
"161.929 0 OFFCURVE",
"300 0 CURVE SMOOTH",
"369.035 0 OFFCURVE",
"443.507 22.259 OFFCURVE",
"487.5 62.5 CURVE",
"413.477 145.273 LINE",
"383.417 121.594 OFFCURVE",
"348.324 108.75 OFFCURVE",
"301.636 108.75 CURVE SMOOTH",
"267.956 108.75 OFFCURVE",
"238.743 121.594 OFFCURVE",
"221.354 135.601 CURVE SMOOTH",
"200.182 152.656 OFFCURVE",
"187.191 171.476 OFFCURVE",
"180.871 193.75 CURVE",
"546.655 193.75 LINE",
"549.001 209.451 OFFCURVE",
"550 241.137 OFFCURVE",
"550 250 CURVE SMOOTH",
"550 388.073 OFFCURVE",
"438.071 500 OFFCURVE",
"300 500 CURVE SMOOTH"
);
},
{
closed = 1;
nodes = (
"196.13 350.364 OFFCURVE",
"245.374 385 OFFCURVE",
"300 385 CURVE SMOOTH",
"355.876 385 OFFCURVE",
"406.37 352.864 OFFCURVE",
"421.63 303.75 CURVE",
"179.62 303.75 LINE"
);
}
);
width = 600;
}
);
leftKerningGroup = a;
rightKerningGroup = o;
unicode = 0065;
},
{
glyphname = eogonek;
lastChange = "2018-10-22 10:38:34 +0000";
layers = (
{
components = (
{
name = e;
}
);
layerId = "156A2E6C-2CEB-4630-8DE9-705D0EDBB142";
paths = (
{
closed = 1;
nodes = (
"287.5 0 OFFCURVE",
"274.472 -12.151 OFFCURVE",
"270.788 -16.788 CURVE",
"246.427 -47.449 OFFCURVE",
"237.155 -75.669 OFFCURVE",
"237.51 -113.69 CURVE",
"238.215 -189.25 OFFCURVE",
"300.926 -250 OFFCURVE",
"380.793 -250 CURVE",
"412.5 -250 LINE",
"412.5 -150 LINE",
"403.604 -150 LINE",
"367.925 -150 OFFCURVE",
"329.863 -115.135 OFFCURVE",
"329.863 -80.347 CURVE",
"329.863 -37.511 OFFCURVE",
"349.872 -4.311 OFFCURVE",
"402.969 16.13 CURVE",
"287.5 0 LINE"
);
}
);
width = 600;
}
);
leftKerningGroup = a;
rightKerningGroup = o;
unicode = 0119;
},
{
glyphname = hbar;
lastChange = "2018-10-23 09:58:15 +0000";
layers = (
{
layerId = "156A2E6C-2CEB-4630-8DE9-705D0EDBB142";
paths = (
{
closed = 1;
nodes = (
"372.65 500 OFFCURVE",
"340.947 492.201 OFFCURVE",
"312.5 478.665 CURVE",
"312.5 562.5 LINE",
"437.5 562.5 LINE",
"437.5 662.5 LINE",
"312.5 662.5 LINE",
"312.5 750 LINE",
"187.5 750 LINE",
"187.5 662.5 LINE",
"62.5 662.5 LINE",
"62.5 562.5 LINE",
"187.5 562.5 LINE",
"187.5 0 LINE",
"312.5 0 LINE",
"312.5 281.25 LINE",
"312.5 333.028 OFFCURVE",
"354.474 375 OFFCURVE",
"406.25 375 CURVE",
"458.026 375 OFFCURVE",
"500 333.028 OFFCURVE",
"500 281.25 CURVE",
"500 0 LINE",
"625 0 LINE",
"625 281.25 LINE",
"625 402.063 OFFCURVE",
"527.063 500 OFFCURVE",
"406.25 500 CURVE"
);
}
);
width = 687.5;
}
);
leftKerningGroup = Hbar;
rightKerningGroup = h;
unicode = 0127;
},
{
glyphname = k;
lastChange = "2018-12-06 11:25:35 +0000";
layers = (
{
layerId = "156A2E6C-2CEB-4630-8DE9-705D0EDBB142";
paths = (
{
closed = 1;
nodes = (
"307.14 281.25 LINE",
"525.89 500 LINE",
"349.108 500 LINE",
"187.499 338.391 LINE",
"187.499 750 LINE",
"62.499 750 LINE",
"62.499 0 LINE",
"187.499 0 LINE",
"187.499 161.609 LINE",
"218.749 192.859 LINE",
"411.608 0 LINE",
"588.39 0 LINE"
);
}
);
width = 638.39;
}
);
leftKerningGroup = b;
rightKerningGroup = k;
unicode = 006B;
},
{
glyphname = lslash;
lastChange = "2018-10-23 09:46:26 +0000";
layers = (
{
components = (
{
name = l;
transform = "{1, 0, 0, 1, 125, 0}";
}
);
layerId = "156A2E6C-2CEB-4630-8DE9-705D0EDBB142";
paths = (
{
closed = 1;
nodes = (
"437.5 418.059 LINE",
"437.5 519.444 LINE",
"62.5 456.941 LINE",
"62.5 355.556 LINE"
);
}
);
width = 500;
}
);
leftKerningGroup = Eth;
unicode = 0142;
},
{
glyphname = m;
lastChange = "2018-12-09 14:40:14 +0000";
layers = (
{
layerId = "156A2E6C-2CEB-4630-8DE9-705D0EDBB142";
paths = (
{
closed = 1;
nodes = (
"451.909 500 OFFCURVE",
"408.189 481.74 OFFCURVE",
"375 451.973 CURVE",
"341.811 481.74 OFFCURVE",
"305.904 500 OFFCURVE",
"257.813 500 CURVE",
"229.73 500 OFFCURVE",
"204.433 493.236 OFFCURVE",
"181.888 482.401 CURVE",
"179.688 500 LINE",
"62.5 500 LINE",
"62.5 0 LINE",
"187.5 0 LINE",
"187.5 312.5 LINE",
"187.5 347.018 OFFCURVE",
"215.481 375 OFFCURVE",
"250 375 CURVE",
"284.518 375 OFFCURVE",
"312.5 347.018 OFFCURVE",
"312.5 312.5 CURVE",
"312.5 0 LINE",
"437.5 0 LINE",
"437.5 312.5 LINE",
"437.5 347.018 OFFCURVE",
"465.481 375 OFFCURVE",
"500 375 CURVE",
"534.518 375 OFFCURVE",
"562.5 347.018 OFFCURVE",
"562.5 312.5 CURVE",
"562.5 0 LINE",
"687.5 0 LINE",
"687.5 312.5 LINE",
"687.5 416.054 OFFCURVE",
"603.554 500 OFFCURVE",
"500 500 CURVE"
);
}
);
width = 750;
}
);
leftKerningGroup = m;
rightKerningGroup = h;
unicode = 006D;
},
{
glyphname = n;
lastChange = "2018-12-09 10:16:39 +0000";
layers = (
{
layerId = "156A2E6C-2CEB-4630-8DE9-705D0EDBB142";
paths = (
{
closed = 1;
nodes = (
"248.903 500 OFFCURVE",
"213.464 489.716 OFFCURVE",
"183.041 473.169 CURVE",
"179.687 500 LINE",
"62.5 500 LINE",
"62.5 0 LINE",
"187.5 0 LINE",
"187.5 281.25 LINE",
"187.5 333.028 OFFCURVE",
"229.474 375 OFFCURVE",
"281.25 375 CURVE",
"333.026 375 OFFCURVE",
"375 333.028 OFFCURVE",
"375 281.25 CURVE",
"375 0 LINE",
"500 0 LINE",
"500 281.25 LINE",
"500 402.946 OFFCURVE",
"409.271 500 OFFCURVE",
"289.075 500 CURVE"
);
}
);
width = 562.5;
}
);
leftKerningGroup = m;
rightKerningGroup = h;
unicode = 006E;
},
{
glyphname = eng;
lastChange = "2018-10-22 11:37:26 +0000";
layers = (
{
components = (
{
name = n;
}
);
layerId = "156A2E6C-2CEB-4630-8DE9-705D0EDBB142";
paths = (
{
closed = 1;
nodes = (
"285.922 -66.691 OFFCURVE",
"253.737 -61.847 OFFCURVE",
"253.737 -61.847 CURVE",
"238.62 -159.885 LINE",
"238.62 -159.885 OFFCURVE",
"307.487 -175.623 OFFCURVE",
"339.944 -175.623 CURVE",
"451.115 -175.623 OFFCURVE",
"500 -93.347 OFFCURVE",
"500 0 CURVE",
"375 0 LINE",
"375 -35.284 OFFCURVE",
"350.262 -66.691 OFFCURVE",
"314.961 -66.691 CURVE"
);
}
);
width = 562.5;
}
);
leftKerningGroup = m;
rightKerningGroup = h;
unicode = 014B;
},
{
glyphname = oslash;
lastChange = "2018-12-05 10:42:53 +0000";
layers = (
{
layerId = "156A2E6C-2CEB-4630-8DE9-705D0EDBB142";
paths = (
{
closed = 1;
nodes = (
"547.034 440.466 LINE",
"490.466 497.034 LINE",
"446.048 452.615 LINE",
"404.935 482.304 OFFCURVE",
"354.588 500 OFFCURVE",
"300 500 CURVE",
"161.929 500 OFFCURVE",
"50 388.072 OFFCURVE",
"50 250 CURVE",
"50 195.412 OFFCURVE",
"67.694 145.065 OFFCURVE",
"97.385 103.952 CURVE",
"52.966 59.534 LINE",
"109.534 2.966 LINE",
"153.952 47.385 LINE",
"195.065 17.694 OFFCURVE",
"245.412 0 OFFCURVE",
"300 0 CURVE",
"438.071 0 OFFCURVE",
"550 111.929 OFFCURVE",
"550 250 CURVE",
"550 304.588 OFFCURVE",
"532.306 354.935 OFFCURVE",
"502.615 396.048 CURVE"
);
},
{
closed = 1;
nodes = (
"175 319.035 OFFCURVE",
"230.965 375 OFFCURVE",
"300 375 CURVE",
"319.881 375 OFFCURVE",
"338.419 369.933 OFFCURVE",
"355.107 361.674 CURVE",
"188.326 194.893 LINE",
"180.067 211.581 OFFCURVE",
"175 230.119 OFFCURVE",
"175 250 CURVE"
);
},
{
closed = 1;
nodes = (
"280.119 125 OFFCURVE",
"261.581 130.067 OFFCURVE",
"244.893 138.326 CURVE",
"411.674 305.107 LINE",
"419.933 288.419 OFFCURVE",
"425 269.881 OFFCURVE",
"425 250 CURVE",
"425 180.965 OFFCURVE",
"369.035 125 OFFCURVE",
"300 125 CURVE"
);
}
);
width = 600;
}
);
leftKerningGroup = a;
rightKerningGroup = o;
unicode = 00F8;
},
{
glyphname = r;
lastChange = "2018-12-09 10:20:14 +0000";
layers = (
{
layerId = "156A2E6C-2CEB-4630-8DE9-705D0EDBB142";
paths = (
{
closed = 1;
nodes = (
"179.688 500 LINE",
"62.5 500 LINE",
"62.5 0 LINE",
"187.5 0 LINE",
"187.5 250 LINE",
"187.5 332.308 OFFCURVE",
"253.272 375 OFFCURVE",
"312.5 375 CURVE",
"312.5 500 LINE",
"263.53 500 OFFCURVE",
"220.294 486.939 OFFCURVE",
"184.035 465.225 CURVE"
);
}
);
width = 375;
}
);
leftKerningGroup = m;
rightKerningGroup = r;
unicode = 0072;
},
{
glyphname = s;
lastChange = "2018-12-09 14:39:13 +0000";
layers = (
{
layerId = "156A2E6C-2CEB-4630-8DE9-705D0EDBB142";
paths = (
{
closed = 1;
nodes = (
"289.998 346.875 LINE",
"264.06 371.562 OFFCURVE",
"242.81 386.25 OFFCURVE",
"217.81 386.25 CURVE SMOOTH",
"206.46 386.25 OFFCURVE",
"199.691 384.365 OFFCURVE",
"193.122 380.312 CURVE SMOOTH",
"185.935 375.879 OFFCURVE",
"183.435 367.5 OFFCURVE",
"183.435 359.688 CURVE SMOOTH",
"183.435 346.355 OFFCURVE",
"192.679 335.733 OFFCURVE",
"213.435 325.625 CURVE SMOOTH",
"270.02 298.07 OFFCURVE",
"318.745 269.92 OFFCURVE",
"341.951 246.25 CURVE SMOOTH",
"370.364 217.269 OFFCURVE",
"386.668 183.125 OFFCURVE",
"386.668 142.5 CURVE SMOOTH",
"386.668 97.5 OFFCURVE",
"370.364 67.188 OFFCURVE",
"337.551 39.375 CURVE SMOOTH",
"305.051 11.875 OFFCURVE",
"265.31 0.625 OFFCURVE",
"220.935 0.625 CURVE SMOOTH",
"142.498 0.625 OFFCURVE",
"86.248 30.625 OFFCURVE",
"37.498 99.062 CURVE",
"125.31 168.75 LINE",
"143.812 146.41 OFFCURVE",
"175.467 115.625 OFFCURVE",
"211.56 115.625 CURVE SMOOTH",
"227.44 115.625 OFFCURVE",
"238.952 119.279 OFFCURVE",
"246.094 125.106 CURVE SMOOTH",
"254.074 131.619 OFFCURVE",
"256.811 140.425 OFFCURVE",
"256.811 148.545 CURVE SMOOTH",
"256.811 162.785 OFFCURVE",
"249.022 175.234 OFFCURVE",
"233.7 186.039 CURVE SMOOTH",
"209.88 202.836 OFFCURVE",
"193.122 212.325 OFFCURVE",
"155.31 232.5 CURVE SMOOTH",
"95.121 264.615 OFFCURVE",
"70.935 308.125 OFFCURVE",
"70.935 359.375 CURVE SMOOTH",
"70.935 397.5 OFFCURVE",
"85.51 431.238 OFFCURVE",
"110.935 456.875 CURVE SMOOTH",
"135.756 481.904 OFFCURVE",
"172.306 500 OFFCURVE",
"216.56 500 CURVE SMOOTH",
"247.81 500 OFFCURVE",
"273.435 494.375 OFFCURVE",
"300.935 480.625 CURVE SMOOTH",
"328.435 466.875 OFFCURVE",
"348.601 448.569 OFFCURVE",
"372.185 423.75 CURVE"
);
}
);
width = 424.17;
}
);
leftKerningGroup = s;
rightKerningGroup = s;
unicode = 0073;
},
{
glyphname = scedilla;
lastChange = "2018-10-23 09:39:53 +0000";
layers = (
{
layerId = "156A2E6C-2CEB-4630-8DE9-705D0EDBB142";
paths = (
{
closed = 1;
nodes = (
"265.307 0 OFFCURVE",
"305.049 11.25 OFFCURVE",
"337.548 38.75 CURVE",
"370.361 66.563 OFFCURVE",
"386.665 96.875 OFFCURVE",
"386.665 141.875 CURVE",
"386.665 182.5 OFFCURVE",
"370.361 216.644 OFFCURVE",
"341.948 245.625 CURVE",
"318.742 269.295 OFFCURVE",
"270.018 297.446 OFFCURVE",
"213.432 325 CURVE",
"192.675 335.109 OFFCURVE",
"183.432 345.731 OFFCURVE",
"183.432 359.064 CURVE",
"183.432 366.875 OFFCURVE",
"185.932 375.255 OFFCURVE",
"193.119 379.688 CURVE",
"199.688 383.74 OFFCURVE",
"206.457 385.625 OFFCURVE",
"217.807 385.625 CURVE",
"242.807 385.625 OFFCURVE",
"264.057 370.938 OFFCURVE",
"289.994 346.251 CURVE",
"372.181 423.125 LINE",
"348.597 447.945 OFFCURVE",
"328.431 466.251 OFFCURVE",
"300.932 480 CURVE",
"273.432 493.75 OFFCURVE",
"247.807 499.376 OFFCURVE",
"216.557 499.376 CURVE",
"172.303 499.376 OFFCURVE",
"135.752 481.279 OFFCURVE",
"110.933 456.25 CURVE",
"85.507 430.614 OFFCURVE",
"70.932 396.875 OFFCURVE",
"70.932 358.751 CURVE",
"70.932 307.5 OFFCURVE",
"95.118 263.991 OFFCURVE",
"155.307 231.876 CURVE",
"193.119 211.7 OFFCURVE",
"209.877 202.211 OFFCURVE",
"233.697 185.414 CURVE",
"249.018 174.609 OFFCURVE",
"256.808 162.16 OFFCURVE",
"256.808 147.92 CURVE",
"256.808 139.801 OFFCURVE",
"254.071 130.994 OFFCURVE",
"246.09 124.481 CURVE",
"238.949 118.654 OFFCURVE",
"227.436 115 OFFCURVE",
"211.557 115 CURVE",
"175.463 115 OFFCURVE",
"143.809 145.786 OFFCURVE",
"125.306 168.126 CURVE",
"37.495 98.438 LINE",
"68.58 54.799 OFFCURVE",
"102.789 26.929 OFFCURVE",
"143.782 12.358 CURVE",
"120.327 -93.397 LINE",
"226.234 -93.397 LINE",
"256.369 -93.397 OFFCURVE",
"269.468 -110.945 OFFCURVE",
"269.468 -126.918 CURVE",
"269.468 -144.823 OFFCURVE",
"256.395 -160.532 OFFCURVE",
"232.431 -160.532 CURVE",
"97.567 -160.532 LINE",
"76.606 -250 LINE",
"231.031 -250 LINE",
"294.03 -250 OFFCURVE",
"347.554 -215.312 OFFCURVE",
"347.554 -137.508 CURVE",
"347.554 -80.753 OFFCURVE",
"297.836 -34.445 OFFCURVE",
"232.431 -34.445 CURVE",
"197.419 -34.445 LINE",
"201.214 0.987 LINE",
"207.696 0.53 OFFCURVE",
"214.126 0 OFFCURVE",
"220.932 0 CURVE"
);
}
);
width = 424.17;
}
);
leftKerningGroup = s;
rightKerningGroup = s;
unicode = 015F;
},
{
glyphname = germandbls;
lastChange = "2018-10-15 10:39:10 +0000";
layers = (
{
layerId = "156A2E6C-2CEB-4630-8DE9-705D0EDBB142";
paths = (
{
closed = 1;
nodes = (
"449.291 448.355 OFFCURVE",
"468.745 495.329 OFFCURVE",
"468.745 546.875 CURVE",
"468.745 658.887 OFFCURVE",
"377.62 750 OFFCURVE",
"265.62 750 CURVE",
"153.621 750 OFFCURVE",
"62.495 658.887 OFFCURVE",
"62.495 546.875 CURVE",
"62.495 0 LINE",
"187.495 0 LINE",
"187.495 546.875 LINE",
"187.495 589.941 OFFCURVE",
"222.542 625 OFFCURVE",
"265.62 625 CURVE",
"308.699 625 OFFCURVE",
"343.745 589.941 OFFCURVE",
"343.745 546.875 CURVE",
"343.745 503.809 OFFCURVE",
"308.699 468.75 OFFCURVE",
"265.62 468.75 CURVE",
"265.62 343.75 LINE",
"325.935 343.75 OFFCURVE",
"374.995 294.678 OFFCURVE",
"374.995 234.375 CURVE",
"374.995 174.072 OFFCURVE",
"325.935 125 OFFCURVE",
"265.62 125 CURVE",
"265.62 0 LINE",
"394.856 0 OFFCURVE",
"499.995 105.151 OFFCURVE",
"499.995 234.375 CURVE",
"499.995 305.646 OFFCURVE",
"467.909 369.479 OFFCURVE",
"417.542 412.503 CURVE"
);
}
);
width = 550;
}
);
leftKerningGroup = b;
rightKerningGroup = B;
unicode = 00DF;
},
{
glyphname = tbar;
lastChange = "2018-10-23 09:37:09 +0000";
layers = (
{
layerId = "156A2E6C-2CEB-4630-8DE9-705D0EDBB142";
paths = (
{
closed = 1;
nodes = (
"312.5 500 LINE",
"187.5 500 LINE",
"187.5 625 LINE",
"62.5 625 LINE",
"62.5 187.5 LINE",
"62.5 83.946 OFFCURVE",
"146.446 0 OFFCURVE",
"250 0 CURVE",
"312.5 0 LINE",
"312.5 125 LINE",
"250 125 LINE",
"215.482 125 OFFCURVE",
"187.5 152.982 OFFCURVE",
"187.5 187.5 CURVE",
"187.5 212.5 LINE",
"312.5 212.5 LINE",
"312.5 312.5 LINE",
"187.5 312.5 LINE",
"187.5 400 LINE",
"312.5 400 LINE"
);
}
);
width = 375;
}
);
leftKerningGroup = t;
rightKerningGroup = t;
unicode = 0167;
},
{
glyphname = v;
lastChange = "2018-12-06 11:24:30 +0000";
layers = (
{
layerId = "156A2E6C-2CEB-4630-8DE9-705D0EDBB142";
paths = (
{
closed = 1;
nodes = (
"340.634 0 LINE",
"525 500 LINE",
"393.731 500 LINE",
"275 178.002 LINE",
"156.269 500 LINE",
"25 500 LINE",
"209.366 0 LINE"
);
}
);
width = 550;
}
);
leftKerningGroup = v;
rightKerningGroup = v;
unicode = 0076;
},
{
glyphname = w;
lastChange = "2018-12-06 11:26:56 +0000";
layers = (
{
layerId = "156A2E6C-2CEB-4630-8DE9-705D0EDBB142";
paths = (
{
closed = 1;
nodes = (
"686.253 500 LINE",
"592.872 201.16 LINE",
"499.485 500 LINE",
"373.761 500 LINE",
"280.372 201.16 LINE",
"186.991 500 LINE",
"61.254 500 LINE",
"217.508 0 LINE",
"343.235 0 LINE",
"436.622 298.84 LINE",
"530.011 0 LINE",
"655.737 0 LINE",
"811.99 500 LINE"
);
}
);
width = 873.24;
}
);
leftKerningGroup = w;
rightKerningGroup = w;
unicode = 0077;
},
{
glyphname = x;
lastChange = "2018-12-06 11:27:01 +0000";
layers = (
{
layerId = "156A2E6C-2CEB-4630-8DE9-705D0EDBB142";
paths = (
{
closed = 1;
nodes = (
"565 500 LINE",
"410.66 500 LINE",
"307.5 356.985 LINE",
"204.34 500 LINE",
"50 500 LINE",
"230.33 250 LINE",
"50 0 LINE",
"204.34 0 LINE",
"307.5 143.015 LINE",
"410.66 0 LINE",
"565 0 LINE",
"384.67 250 LINE"
);
}
);
width = 615;
}
);
leftKerningGroup = x;
rightKerningGroup = x;
unicode = 0078;
},
{
glyphname = z;
lastChange = "2018-12-06 11:27:15 +0000";
layers = (
{
layerId = "156A2E6C-2CEB-4630-8DE9-705D0EDBB142";
paths = (
{
closed = 1;
nodes = (
"62.5 375 LINE",
"365.44 375 LINE",
"62.5 125 LINE",
"62.5 0 LINE",
"562.5 0 LINE",
"562.5 125 LINE",
"259.56 125 LINE",
"562.5 375 LINE",
"562.5 500 LINE",
"62.5 500 LINE"
);
}
);
width = 625;
}
);
leftKerningGroup = z;
rightKerningGroup = z;
unicode = 007A;
},
{
glyphname = two;
lastChange = "2018-12-09 15:00:01 +0000";
layers = (
{
layerId = "156A2E6C-2CEB-4630-8DE9-705D0EDBB142";
paths = (
{
closed = 1;
nodes = (
"537.225 371.983 OFFCURVE",
"562.5 431.932 OFFCURVE",
"562.5 500 CURVE",
"562.5 638.072 OFFCURVE",
"450.571 750 OFFCURVE",
"312.5 750 CURVE",
"174.429 750 OFFCURVE",
"62.5 638.072 OFFCURVE",
"62.5 500 CURVE",
"187.5 500 LINE",
"187.5 569.035 OFFCURVE",
"243.465 625 OFFCURVE",
"312.5 625 CURVE",
"381.535 625 OFFCURVE",
"437.5 569.035 OFFCURVE",
"437.5 500 CURVE",
"437.5 475.334 OFFCURVE",
"430.714 441.515 OFFCURVE",
"400.891 411.597 CURVE",
"62.5 73.206 LINE",
"62.5 0 LINE",
"562.5 0 LINE",
"562.5 125 LINE",
"291.06 125 LINE",
"489.282 323.218 LINE"
);
}
);
width = 625;
}
);
leftKerningGroup = "2";
rightKerningGroup = R;
unicode = 0032;
},
{
glyphname = three;
lastChange = "2018-12-09 15:00:08 +0000";
layers = (
{
layerId = "156A2E6C-2CEB-4630-8DE9-705D0EDBB142";
paths = (
{
closed = 1;
nodes = (
"480.55 436.728 OFFCURVE",
"500.005 495.329 OFFCURVE",
"500.005 546.875 CURVE",
"500.005 658.887 OFFCURVE",
"408.88 750 OFFCURVE",
"296.88 750 CURVE",
"184.881 750 OFFCURVE",
"93.755 658.887 OFFCURVE",
"93.755 546.875 CURVE",
"218.755 546.875 LINE",
"218.755 589.941 OFFCURVE",
"253.801 625 OFFCURVE",
"296.88 625 CURVE",
"339.959 625 OFFCURVE",
"375.005 589.941 OFFCURVE",
"375.005 546.875 CURVE",
"375.005 499.326 OFFCURVE",
"333.824 453.112 OFFCURVE",
"234.38 453.112 CURVE",
"234.38 343.737 LINE",
"352.914 343.737 OFFCURVE",
"406.255 294.007 OFFCURVE",
"406.255 234.375 CURVE",
"406.255 165.891 OFFCURVE",
"357.195 125 OFFCURVE",
"296.88 125 CURVE",
"236.565 125 OFFCURVE",
"187.505 174.072 OFFCURVE",
"187.505 234.375 CURVE",
"62.505 234.375 LINE",
"62.505 105.151 OFFCURVE",
"167.644 0 OFFCURVE",
"296.88 0 CURVE",
"426.116 0 OFFCURVE",
"531.255 105.151 OFFCURVE",
"531.255 234.375 CURVE",
"531.255 305.646 OFFCURVE",
"499.169 367.934 OFFCURVE",
"448.801 404.688 CURVE"
);
}
);
width = 593.75;
}
);
leftKerningGroup = "3";
rightKerningGroup = "8";
unicode = 0033;
},
{
glyphname = four;
lastChange = "2018-12-09 15:00:19 +0000";
layers = (
{
layerId = "156A2E6C-2CEB-4630-8DE9-705D0EDBB142";
paths = (
{
closed = 1;
nodes = (
"476.558 312.5 LINE",
"476.558 750 LINE",
"332.995 750 LINE",
"62.495 307.364 LINE",
"62.495 187.5 LINE",
"343.745 187.5 LINE",
"343.745 0 LINE",
"476.558 0 LINE",
"476.558 187.5 LINE",
"562.495 187.5 LINE",
"562.495 312.5 LINE"
);
},
{
closed = 1;
nodes = (
"343.745 520.062 LINE",
"343.745 312.5 LINE",
"219.958 312.5 LINE"
);
}
);
width = 625;
}
);
leftKerningGroup = "4";
rightKerningGroup = "4";
unicode = 0034;
},
{
glyphname = five;
lastChange = "2018-12-09 15:00:24 +0000";
layers = (
{
layerId = "156A2E6C-2CEB-4630-8DE9-705D0EDBB142";
paths = (
{
closed = 1;
nodes = (
"174.646 0 OFFCURVE",
"62.5 112.158 OFFCURVE",
"62.5 250 CURVE",
"187.5 250 LINE",
"187.5 181.079 OFFCURVE",
"243.579 125 OFFCURVE",
"312.5 125 CURVE",
"381.421 125 OFFCURVE",
"437.5 181.079 OFFCURVE",
"437.5 250 CURVE",
"437.5 318.921 OFFCURVE",
"381.421 375 OFFCURVE",
"312.5 375 CURVE",
"101.074 375 LINE",
"147.949 750 LINE",
"500 750 LINE",
"500 625 LINE",
"258.301 625 LINE",
"242.676 500 LINE",
"312.5 500 LINE",
"450.354 500 OFFCURVE",
"562.5 387.842 OFFCURVE",
"562.5 250 CURVE",
"562.5 112.158 OFFCURVE",
"450.354 0 OFFCURVE",
"312.5 0 CURVE"
);
}
);
width = 625;
}
);
leftKerningGroup = "5";
rightKerningGroup = "5";
unicode = 0035;
},
{
glyphname = six;
lastChange = "2018-12-09 15:00:32 +0000";
layers = (
{
layerId = "156A2E6C-2CEB-4630-8DE9-705D0EDBB142";
paths = (
{
closed = 1;
nodes = (
"477.538 750 LINE",
"330.128 750 LINE",
"100.726 382.233 LINE",
"76.651 343.819 OFFCURVE",
"62.5 298.579 OFFCURVE",
"62.5 250 CURVE",
"62.5 112.158 OFFCURVE",
"174.646 0 OFFCURVE",
"312.5 0 CURVE",
"450.354 0 OFFCURVE",
"562.5 112.158 OFFCURVE",
"562.5 250 CURVE",
"562.5 384.956 OFFCURVE",
"454.929 495.006 OFFCURVE",
"321.051 499.567 CURVE"
);
},
{
closed = 1;
nodes = (
"243.579 125 OFFCURVE",
"187.5 181.079 OFFCURVE",
"187.5 250 CURVE",
"187.5 318.921 OFFCURVE",
"243.579 375 OFFCURVE",
"312.5 375 CURVE",
"381.421 375 OFFCURVE",
"437.5 318.921 OFFCURVE",
"437.5 250 CURVE",
"437.5 181.079 OFFCURVE",
"381.421 125 OFFCURVE",
"312.5 125 CURVE"
);
}
);
width = 625;
}
);
leftKerningGroup = "6";
rightKerningGroup = "5";
unicode = 0036;
},
{
glyphname = seven;
lastChange = "2018-12-09 15:00:37 +0000";
layers = (
{
layerId = "156A2E6C-2CEB-4630-8DE9-705D0EDBB142";
paths = (
{
closed = 1;
nodes = (
"62.5 625 LINE",
"402.084 625 LINE",
"135.159 0 LINE",
"271.094 0 LINE",
"531.25 609.152 LINE",
"531.25 750 LINE",
"62.5 750 LINE"
);
}
);
width = 593.75;
}
);
leftKerningGroup = "7";
rightKerningGroup = "7";
unicode = 0037;
},
{
glyphname = eight;
lastChange = "2018-12-09 15:00:49 +0000";
layers = (
{
layerId = "156A2E6C-2CEB-4630-8DE9-705D0EDBB142";
paths = (
{
closed = 1;
nodes = (
"480.545 448.355 OFFCURVE",
"500 495.329 OFFCURVE",
"500 546.875 CURVE",
"500 658.887 OFFCURVE",
"408.875 750 OFFCURVE",
"296.875 750 CURVE",
"184.876 750 OFFCURVE",
"93.75 658.887 OFFCURVE",
"93.75 546.875 CURVE",
"93.75 495.329 OFFCURVE",
"113.205 448.355 OFFCURVE",
"144.954 412.503 CURVE",
"94.586 369.479 OFFCURVE",
"62.5 305.646 OFFCURVE",
"62.5 234.375 CURVE",
"62.5 105.151 OFFCURVE",
"167.639 0 OFFCURVE",
"296.875 0 CURVE",
"426.111 0 OFFCURVE",
"531.25 105.151 OFFCURVE",
"531.25 234.375 CURVE",
"531.25 305.646 OFFCURVE",
"499.164 369.479 OFFCURVE",
"448.796 412.503 CURVE"
);
},
{
closed = 1;
nodes = (
"218.75 589.941 OFFCURVE",
"253.796 625 OFFCURVE",
"296.875 625 CURVE",
"339.954 625 OFFCURVE",
"375 589.941 OFFCURVE",
"375 546.875 CURVE",
"375 503.809 OFFCURVE",
"339.954 468.75 OFFCURVE",
"296.875 468.75 CURVE",
"253.796 468.75 OFFCURVE",
"218.75 503.809 OFFCURVE",
"218.75 546.875 CURVE"
);
},
{
closed = 1;
nodes = (
"236.56 125 OFFCURVE",
"187.5 174.072 OFFCURVE",
"187.5 234.375 CURVE",
"187.5 294.678 OFFCURVE",
"236.56 343.75 OFFCURVE",
"296.875 343.75 CURVE",
"357.19 343.75 OFFCURVE",
"406.25 294.678 OFFCURVE",
"406.25 234.375 CURVE",
"406.25 174.072 OFFCURVE",
"357.19 125 OFFCURVE",
"296.875 125 CURVE"
);
}
);
width = 593.75;
}
);
leftKerningGroup = "8";
rightKerningGroup = B;
unicode = 0038;
},
{
glyphname = fraction;
lastChange = "2018-09-17 06:11:23 +0000";
layers = (
{
layerId = "156A2E6C-2CEB-4630-8DE9-705D0EDBB142";
paths = (
{
closed = 1;
nodes = (
"238.75 0 LINE",
"988.75 750 LINE",
"812.5 750 LINE",
"62.5 0 LINE"
);
}
);
width = 1062.5;
}
);
unicode = 2044;
},
{
glyphname = question;
lastChange = "2018-12-09 14:44:37 +0000";
layers = (
{
layerId = "156A2E6C-2CEB-4630-8DE9-705D0EDBB142";
paths = (
{
closed = 1;
nodes = (
"250 0 LINE",
"250 125 LINE",
"375 125 LINE",
"375 0 LINE"
);
},
{
closed = 1;
nodes = (
"526.747 357.664 OFFCURVE",
"562.5 425 OFFCURVE",
"562.5 500 CURVE",
"562.5 637.854 OFFCURVE",
"450.354 750 OFFCURVE",
"312.5 750 CURVE",
"174.646 750 OFFCURVE",
"62.5 637.854 OFFCURVE",
"62.5 500 CURVE",
"187.5 500 LINE",
"187.5 568.921 OFFCURVE",
"248.468 625 OFFCURVE",
"312.5 625 CURVE",
"381.421 625 OFFCURVE",
"437.5 568.921 OFFCURVE",
"437.5 500 CURVE",
"437.5 465.649 OFFCURVE",
"421.178 435.602 OFFCURVE",
"383.435 409.815 CURVE",
"327.884 371.859 OFFCURVE",
"250 306.775 OFFCURVE",
"250 187.5 CURVE",
"375 187.5 LINE",
"375 238.248 OFFCURVE",
"404.193 271.75 OFFCURVE",
"460.999 311.572 CURVE"
);
}
);
width = 625;
}
);
leftKerningGroup = "9";
rightKerningGroup = "9";
unicode = 003F;
},
{
glyphname = asterisk;
lastChange = "2018-12-09 14:54:42 +0000";
layers = (
{
layerId = "156A2E6C-2CEB-4630-8DE9-705D0EDBB142";
paths = (
{
closed = 1;
nodes = (
"387.262 696.846 LINE",
"299.327 650.847 LINE",
"295.195 750 LINE",
"201.445 750 LINE",
"197.313 650.847 LINE",
"109.378 696.846 LINE",
"62.503 615.655 LINE",
"146.307 562.501 LINE",
"62.503 509.346 LINE",
"109.378 428.156 LINE",
"197.313 474.155 LINE",
"201.445 375 LINE",
"295.195 375 LINE",
"299.327 474.155 LINE",
"387.262 428.156 LINE",
"434.137 509.346 LINE",
"350.333 562.501 LINE",
"434.137 615.655 LINE"
);
}
);
width = 496.64;
}
);
unicode = 002A;
},
{
glyphname = numbersign;
lastChange = "2018-12-05 10:12:43 +0000";
layers = (
{
layerId = "156A2E6C-2CEB-4630-8DE9-705D0EDBB142";
paths = (
{
closed = 1;
nodes = (
"896.25 625 LINE",
"778.75 625 LINE",
"820 750 LINE",
"688.75 750 LINE",
"646.25 625 LINE",
"466.25 625 LINE",
"507.5 750 LINE",
"376.25 750 LINE",
"333.75 625 LINE",
"208.75 625 LINE",
"167.5 500 LINE",
"292.5 500 LINE",
"230 312.5 LINE",
"105 312.5 LINE",
"63.75 187.5 LINE",
"188.75 187.5 LINE",
"126.25 0 LINE",
"257.5 0 LINE",
"320 187.5 LINE",
"501.25 187.5 LINE",
"438.75 0 LINE",
"570 0 LINE",
"632.5 187.5 LINE",
"751.25 187.5 LINE",
"792.5 312.5 LINE",
"673.75 312.5 LINE",
"736.25 500 LINE",
"855 500 LINE"
);
},
{
closed = 1;
nodes = (
"361.25 312.5 LINE",
"423.75 500 LINE",
"605 500 LINE",
"542.5 312.5 LINE"
);
}
);
width = 958.75;
}
);
unicode = 0023;
},
{
glyphname = slash;
lastChange = "2018-12-09 14:49:07 +0000";
layers = (
{
layerId = "156A2E6C-2CEB-4630-8DE9-705D0EDBB142";
paths = (
{
closed = 1;
nodes = (
"62.5 0 LINE",
"312.5 750 LINE",
"445 750 LINE",
"193.75 0 LINE"
);
}
);
width = 507.5;
}
);
leftKerningGroup = slash;
rightKerningGroup = slash;
unicode = 002F;
},
{
glyphname = guilsinglleft;
lastChange = "2018-12-09 09:56:09 +0000";
layers = (
{
layerId = "156A2E6C-2CEB-4630-8DE9-705D0EDBB142";
paths = (
{
closed = 1;
nodes = (
"193.75 375 LINE",
"318.75 750 LINE",
"187.5 750 LINE",
"62.5 375 LINE",
"187.5 0 LINE",
"318.75 0 LINE"
);
}
);
width = 381.25;
}
);
leftKerningGroup = guilsinglleft;
rightKerningGroup = guilsinglleft;
unicode = 2039;
},
{
glyphname = quotesingle;
lastChange = "2018-12-09 14:47:34 +0000";
layers = (
{
layerId = "156A2E6C-2CEB-4630-8DE9-705D0EDBB142";
paths = (
{
closed = 1;
nodes = (
"301.25 750 LINE",
"170 750 LINE",
"86.25 500 LINE",
"217.5 500 LINE"
);
}
);
width = 375;
}
);
leftKerningGroup = quotesingle;
rightKerningGroup = quotesingle;
unicode = 0027;
},
{
glyphname = currency;
lastChange = "2018-09-17 06:11:23 +0000";
layers = (
{
layerId = "156A2E6C-2CEB-4630-8DE9-705D0EDBB142";
paths = (
{
closed = 1;
nodes = (
"615 421.25 OFFCURVE",
"602.5 465 OFFCURVE",
"580 501.25 CURVE",
"673.75 596.25 LINE",
"586.25 683.75 LINE",
"491.25 590 LINE",
"455 612.5 OFFCURVE",
"411.25 625 OFFCURVE",
"365 625 CURVE",
"318.75 625 OFFCURVE",
"275 612.5 OFFCURVE",
"238.75 590 CURVE",
"143.75 683.75 LINE",
"56.25 596.25 LINE",
"150 501.25 LINE",
"127.5 465 OFFCURVE",
"115 421.25 OFFCURVE",
"115 375 CURVE",
"115 328.75 OFFCURVE",
"127.5 285 OFFCURVE",
"150 248.75 CURVE",
"56.25 153.75 LINE",
"143.75 66.25 LINE",
"238.75 160 LINE",
"275 137.5 OFFCURVE",
"318.75 125 OFFCURVE",
"365 125 CURVE",
"411.25 125 OFFCURVE",
"455 137.5 OFFCURVE",
"491.25 160 CURVE",
"586.25 66.25 LINE",
"673.75 153.75 LINE",
"580 248.75 LINE",
"602.5 285 OFFCURVE",
"615 328.75 OFFCURVE",
"615 375 CURVE"
);
},
{
closed = 1;
nodes = (
"240 443.75 OFFCURVE",
"296.25 500 OFFCURVE",
"365 500 CURVE",
"433.75 500 OFFCURVE",
"490 443.75 OFFCURVE",
"490 375 CURVE",
"490 306.25 OFFCURVE",
"433.75 250 OFFCURVE",
"365 250 CURVE",
"296.25 250 OFFCURVE",
"240 306.25 OFFCURVE",
"240 375 CURVE"
);
}
);
width = 730;
}
);
unicode = 00A4;
},
{
glyphname = yen;
lastChange = "2018-09-17 06:11:23 +0000";
layers = (
{
layerId = "156A2E6C-2CEB-4630-8DE9-705D0EDBB142";
paths = (
{
closed = 1;
nodes = (
"433.194 750 LINE",
"318.75 558.985 LINE",
"204.306 750 LINE",
"58.75 750 LINE",
"245.969 437.5 LINE",
"69.127 437.5 LINE",
"69.127 312.5 LINE",
"256.344 312.5 LINE",
"256.344 250 LINE",
"69.127 250 LINE",
"69.127 125 LINE",
"256.344 125 LINE",
"256.344 0 LINE",
"381.156 0 LINE",
"381.156 125 LINE",
"568.372 125 LINE",
"568.372 250 LINE",
"381.156 250 LINE",
"381.156 312.5 LINE",
"568.372 312.5 LINE",
"568.372 437.5 LINE",
"391.531 437.5 LINE",
"578.75 750 LINE"
);
}
);
width = 637.5;
}
);
unicode = 00A5;
},
{
glyphname = notequal;
lastChange = "2018-09-19 10:04:18 +0000";
layers = (
{
layerId = "156A2E6C-2CEB-4630-8DE9-705D0EDBB142";
paths = (
{
closed = 1;
nodes = (
"562.5 562.5 LINE",
"443.75 562.5 LINE",
"486.25 687.5 LINE",
"353.75 687.5 LINE",
"312.5 562.5 LINE",
"62.5 562.5 LINE",
"62.5 437.5 LINE",
"271.25 437.5 LINE",
"228.75 312.5 LINE",
"62.5 312.5 LINE",
"62.5 187.5 LINE",
"187.5 187.5 LINE",
"146.25 62.5 LINE",
"277.5 62.5 LINE",
"318.75 187.5 LINE",
"562.5 187.5 LINE",
"562.5 312.5 LINE",
"361.25 312.5 LINE",
"402.5 437.5 LINE",
"562.5 437.5 LINE"
);
}
);
width = 625;
}
);
leftKerningGroup = equal;
rightKerningGroup = equal;
unicode = 2260;
},
{
glyphname = greater;
lastChange = "2018-09-17 06:11:23 +0000";
layers = (
{
layerId = "156A2E6C-2CEB-4630-8DE9-705D0EDBB142";
paths = (
{
closed = 1;
nodes = (
"562.5 305 LINE",
"562.5 445 LINE",
"62.5 695 LINE",
"62.5 555 LINE",
"422.5 375 LINE",
"62.5 195 LINE",
"62.5 55 LINE"
);
}
);
width = 625;
}
);
unicode = 003E;
},
{
glyphname = greaterequal;
lastChange = "2018-09-17 06:11:23 +0000";
layers = (
{
components = (
{
name = greater;
}
);
layerId = "156A2E6C-2CEB-4630-8DE9-705D0EDBB142";
paths = (
{
closed = 1;
nodes = (
"562.5 62.5 LINE",
"562.5 202.5 LINE",
"62.5 -47.5 LINE",
"62.5 -187.5 LINE"
);
}
);
width = 625;
}
);
unicode = 2265;
},
{
glyphname = asciitilde;
lastChange = "2018-09-17 06:11:23 +0000";
layers = (
{
layerId = "156A2E6C-2CEB-4630-8DE9-705D0EDBB142";
paths = (
{
closed = 1;
nodes = (
"562.5 433.75 OFFCURVE",
"535 406.25 OFFCURVE",
"500 406.25 CURVE",
"478.75 406.25 OFFCURVE",
"432.5 421.25 OFFCURVE",
"395 433.75 CURVE",
"341.25 452.5 OFFCURVE",
"291.25 468.75 OFFCURVE",
"250 468.75 CURVE",
"146.25 468.75 OFFCURVE",
"62.5 385 OFFCURVE",
"62.5 281.25 CURVE",
"187.5 281.25 LINE",
"187.5 316.25 OFFCURVE",
"215 343.75 OFFCURVE",
"250 343.75 CURVE",
"271.25 343.75 OFFCURVE",
"317.5 328.75 OFFCURVE",
"355 316.25 CURVE",
"408.75 297.5 OFFCURVE",
"458.75 281.25 OFFCURVE",
"500 281.25 CURVE",
"603.75 281.25 OFFCURVE",
"687.5 365 OFFCURVE",
"687.5 468.75 CURVE",
"562.5 468.75 LINE"
);
}
);
width = 750;
}
);
unicode = 007E;
},
{
glyphname = asciicircum;
lastChange = "2018-09-17 06:11:23 +0000";
layers = (
{
layerId = "156A2E6C-2CEB-4630-8DE9-705D0EDBB142";
paths = (
{
closed = 1;
nodes = (
"187.5 750 LINE",
"62.5 500 LINE",
"202.5 500 LINE",
"257.5 610 LINE",
"312.5 500 LINE",
"452.5 500 LINE",
"327.5 750 LINE"
);
}
);
width = 515;
}
);
unicode = 005E;
},
{
glyphname = emptyset;
lastChange = "2018-09-17 06:11:23 +0000";
layers = (
{
layerId = "156A2E6C-2CEB-4630-8DE9-705D0EDBB142";
paths = (
{
closed = 1;
nodes = (
"706.25 731.25 LINE",
"610 635 LINE",
"560 668.75 OFFCURVE",
"501.25 687.5 OFFCURVE",
"437.5 687.5 CURVE",
"265 687.5 OFFCURVE",
"125 547.5 OFFCURVE",
"125 375 CURVE",
"125 311.25 OFFCURVE",
"143.75 252.5 OFFCURVE",
"176.25 202.5 CURVE",
"81.25 106.25 LINE",
"168.75 18.75 LINE",
"265 113.75 LINE",
"315 81.25 OFFCURVE",
"373.75 62.5 OFFCURVE",
"437.5 62.5 CURVE",
"610 62.5 OFFCURVE",
"750 202.5 OFFCURVE",
"750 375 CURVE",
"750 438.75 OFFCURVE",
"731.25 497.5 OFFCURVE",
"698.75 547.5 CURVE",
"793.75 643.75 LINE"
);
},
{
closed = 1;
nodes = (
"250 478.75 OFFCURVE",
"333.75 562.5 OFFCURVE",
"437.5 562.5 CURVE",
"466.25 562.5 OFFCURVE",
"493.75 555 OFFCURVE",
"518.75 543.75 CURVE",
"268.75 293.75 LINE",
"256.25 318.75 OFFCURVE",
"250 346.25 OFFCURVE",
"250 375 CURVE"
);
},
{
closed = 1;
nodes = (
"625 271.25 OFFCURVE",
"541.25 187.5 OFFCURVE",
"437.5 187.5 CURVE",
"408.75 187.5 OFFCURVE",
"381.25 193.75 OFFCURVE",
"356.25 206.25 CURVE",
"606.25 455 LINE",
"618.75 431.25 OFFCURVE",
"625 403.75 OFFCURVE",
"625 375 CURVE"
);
}
);
width = 875;
}
);
unicode = 2205;
},
{
glyphname = infinity;
lastChange = "2018-09-17 06:11:23 +0000";
layers = (
{
layerId = "156A2E6C-2CEB-4630-8DE9-705D0EDBB142";
paths = (
{
closed = 1;
nodes = (
"812.5 625 LINE",
"693.75 625 OFFCURVE",
"618.75 557.5 OFFCURVE",
"562.5 483.75 CURVE",
"506.25 557.5 OFFCURVE",
"431.25 625 OFFCURVE",
"312.5 625 CURVE",
"175 625 OFFCURVE",
"62.5 512.5 OFFCURVE",
"62.5 375 CURVE",
"62.5 237.5 OFFCURVE",
"175 125 OFFCURVE",
"312.5 125 CURVE",
"431.25 125 OFFCURVE",
"506.25 192.5 OFFCURVE",
"562.5 266.25 CURVE",
"618.75 192.5 OFFCURVE",
"693.75 125 OFFCURVE",
"812.5 125 CURVE",
"812.5 125 LINE",
"950 125 OFFCURVE",
"1062.5 237.5 OFFCURVE",
"1062.5 375 CURVE",
"1062.5 512.5 OFFCURVE",
"950 625 OFFCURVE",
"812.5 625 CURVE"
);
},
{
closed = 1;
nodes = (
"243.75 250 OFFCURVE",
"187.5 306.25 OFFCURVE",
"187.5 375 CURVE",
"187.5 443.75 OFFCURVE",
"243.75 500 OFFCURVE",
"312.5 500 CURVE",
"388.75 500 OFFCURVE",
"432.5 453.75 OFFCURVE",
"487.5 375 CURVE",
"432.5 296.25 OFFCURVE",
"388.75 250 OFFCURVE",
"312.5 250 CURVE"
);
},
{
closed = 1;
nodes = (
"812.5 250 LINE",
"736.25 250 OFFCURVE",
"692.5 296.25 OFFCURVE",
"637.5 375 CURVE",
"692.5 453.75 OFFCURVE",
"736.25 500 OFFCURVE",
"812.5 500 CURVE",
"812.5 500 LINE",
"881.25 500 OFFCURVE",
"937.5 443.75 OFFCURVE",
"937.5 375 CURVE",
"937.5 306.25 OFFCURVE",
"881.25 250 OFFCURVE",
"812.5 250 CURVE"
);
}
);
width = 1125;
}
);
unicode = 221E;
},
{
glyphname = integral;
lastChange = "2018-09-17 06:11:23 +0000";
layers = (
{
layerId = "156A2E6C-2CEB-4630-8DE9-705D0EDBB142";
paths = (
{
closed = 1;
nodes = (
"62.5 0 LINE",
"62.5 125 LINE",
"147.5 125 LINE",
"177.5 125 OFFCURVE",
"202.5 146.25 OFFCURVE",
"208.75 175 CURVE",
"293.75 598.75 LINE",
"311.25 686.25 OFFCURVE",
"388.75 750 OFFCURVE",
"477.5 750 CURVE",
"562.5 750 LINE",
"562.5 625 LINE",
"477.5 625 LINE",
"447.5 625 OFFCURVE",
"422.5 603.75 OFFCURVE",
"416.25 575 CURVE",
"331.25 151.25 LINE",
"313.75 63.75 OFFCURVE",
"236.25 0 OFFCURVE",
"147.5 0 CURVE"
);
}
);
width = 625;
}
);
unicode = 222B;
},
{
glyphname = summation;
lastChange = "2018-09-17 06:11:23 +0000";
layers = (
{
layerId = "156A2E6C-2CEB-4630-8DE9-705D0EDBB142";
paths = (
{
closed = 1;
nodes = (
"62.5 750 LINE",
"62.5 625 LINE",
"187.5 375 LINE",
"62.5 125 LINE",
"62.5 0 LINE",
"500 0 LINE",
"500 125 LINE",
"202.5 125 LINE",
"327.5 375 LINE",
"202.5 625 LINE",
"500 625 LINE",
"500 750 LINE"
);
}
);
width = 562.5;
}
);
unicode = 2211;
},
{
glyphname = radical;
lastChange = "2018-09-17 06:11:23 +0000";
layers = (
{
layerId = "156A2E6C-2CEB-4630-8DE9-705D0EDBB142";
paths = (
{
closed = 1;
nodes = (
"236.25 196.25 LINE",
"208.75 250 LINE",
"68.75 250 LINE",
"193.75 0 LINE",
"327.5 0 LINE",
"441.25 625 LINE",
"638.75 625 LINE",
"638.75 750 LINE",
"336.25 750 LINE"
);
}
);
width = 701.25;
}
);
unicode = 221A;
},
{
glyphname = percent;
lastChange = "2018-09-19 10:08:30 +0000";
layers = (
{
layerId = "156A2E6C-2CEB-4630-8DE9-705D0EDBB142";
paths = (
{
closed = 1;
nodes = (
"487.5 437.5 OFFCURVE",
"475 436.25 OFFCURVE",
"463.75 433.75 CURVE",
"568.75 750 LINE",
"437.5 750 LINE",
"393.75 620 LINE",
"360 661.25 OFFCURVE",
"307.5 687.5 OFFCURVE",
"250 687.5 CURVE",
"146.25 687.5 OFFCURVE",
"62.5 603.75 OFFCURVE",
"62.5 500 CURVE",
"62.5 396.25 OFFCURVE",
"146.25 312.5 OFFCURVE",
"250 312.5 CURVE",
"265 312.5 OFFCURVE",
"280 315 OFFCURVE",
"293.75 317.5 CURVE",
"187.5 0 LINE",
"318.75 0 LINE",
"361.25 125 LINE",
"395 86.25 OFFCURVE",
"445 62.5 OFFCURVE",
"500 62.5 CURVE",
"603.75 62.5 OFFCURVE",
"687.5 146.25 OFFCURVE",
"687.5 250 CURVE",
"687.5 353.75 OFFCURVE",
"603.75 437.5 OFFCURVE",
"500 437.5 CURVE"
);
},
{
closed = 1;
nodes = (
"187.5 535 OFFCURVE",
"215 562.5 OFFCURVE",
"250 562.5 CURVE",
"285 562.5 OFFCURVE",
"312.5 535 OFFCURVE",
"312.5 500 CURVE",
"312.5 465 OFFCURVE",
"285 437.5 OFFCURVE",
"250 437.5 CURVE",
"215 437.5 OFFCURVE",
"187.5 465 OFFCURVE",
"187.5 500 CURVE"
);
},
{
closed = 1;
nodes = (
"465 187.5 OFFCURVE",
"437.5 215 OFFCURVE",
"437.5 250 CURVE",
"437.5 285 OFFCURVE",
"465 312.5 OFFCURVE",
"500 312.5 CURVE",
"535 312.5 OFFCURVE",
"562.5 285 OFFCURVE",
"562.5 250 CURVE",
"562.5 215 OFFCURVE",
"535 187.5 OFFCURVE",
"500 187.5 CURVE"
);
}
);
width = 750;
}
);
leftKerningGroup = "9";
unicode = 0025;
},
{
glyphname = upArrow;
lastChange = "2018-12-09 13:50:46 +0000";
layers = (
{
layerId = "156A2E6C-2CEB-4630-8DE9-705D0EDBB142";
paths = (
{
closed = 1;
nodes = (
"500 765.625 LINE",
"80.81 346.435 LINE",
"169.189 258.057 LINE",
"437.5 526.367 LINE",
"437.5 0 LINE",
"562.5 0 LINE",
"562.5 526.367 LINE",
"830.81 258.057 LINE",
"919.19 346.435 LINE"
);
}
);
width = 1000;
}
);
unicode = 2191;
},
{
glyphname = northEastArrow;
lastChange = "2018-12-09 13:51:37 +0000";
layers = (
{
layerId = "156A2E6C-2CEB-4630-8DE9-705D0EDBB142";
paths = (
{
closed = 1;
nodes = (
"180.554 625 LINE",
"645.837 625 LINE",
"131.946 111.108 LINE",
"229.163 13.892 LINE",
"743.054 527.783 LINE",
"743.054 62.5 LINE",
"868.054 62.5 LINE",
"868.054 750 LINE",
"180.554 750 LINE"
);
}
);
width = 1000;
}
);
unicode = 2197;
},
{
glyphname = leftRightArrow;
lastChange = "2018-12-09 13:52:14 +0000";
layers = (
{
layerId = "156A2E6C-2CEB-4630-8DE9-705D0EDBB142";
paths = (
{
closed = 1;
nodes = (
"580.81 518.31 LINE",
"661.621 437.5 LINE",
"338.379 437.5 LINE",
"419.19 518.31 LINE",
"330.81 606.69 LINE",
"99.121 375 LINE",
"330.81 143.31 LINE",
"419.19 231.69 LINE",
"338.379 312.5 LINE",
"661.621 312.5 LINE",
"580.81 231.69 LINE",
"669.19 143.31 LINE",
"900.879 375 LINE",
"669.19 606.69 LINE"
);
}
);
width = 1000;
}
);
unicode = 2194;
},
{
glyphname = lozenge;
lastChange = "2018-09-17 06:11:23 +0000";
layers = (
{
layerId = "156A2E6C-2CEB-4630-8DE9-705D0EDBB142";
paths = (
{
closed = 1;
nodes = (
"312.5 0 LINE",
"462.5 0 LINE",
"712.5 375 LINE",
"462.5 750 LINE",
"312.5 750 LINE",
"62.5 375 LINE"
);
},
{
closed = 1;
nodes = (
"212.5 375 LINE",
"387.5 637.5 LINE",
"562.5 375 LINE",
"387.5 112.5 LINE"
);
}
);
width = 775;
}
);
unicode = 25CA;
},
{
glyphname = ampersand;
lastChange = "2018-12-09 14:10:45 +0000";
layers = (
{
layerId = "156A2E6C-2CEB-4630-8DE9-705D0EDBB142";
paths = (
{
closed = 1;
nodes = (
"437.5 286.621 LINE",
"340.991 383.13 LINE",
"383.96 431.323 LINE",
"418.506 466.553 OFFCURVE",
"437.5 513.061 OFFCURVE",
"437.5 562.5 CURVE",
"437.5 612.598 OFFCURVE",
"417.993 659.668 OFFCURVE",
"382.593 695.068 CURVE",
"347.18 730.493 OFFCURVE",
"300.085 750 OFFCURVE",
"250 750 CURVE",
"199.915 750 OFFCURVE",
"152.82 730.493 OFFCURVE",
"117.419 695.068 CURVE",
"82.007 659.668 OFFCURVE",
"62.5 612.598 OFFCURVE",
"62.5 562.5 CURVE",
"62.5 512.402 OFFCURVE",
"82.007 465.332 OFFCURVE",
"117.419 429.932 CURVE",
"169.128 378.223 LINE",
"116.04 318.677 LINE",
"81.494 283.447 OFFCURVE",
"62.5 236.938 OFFCURVE",
"62.5 187.5 CURVE",
"62.5 137.402 OFFCURVE",
"82.007 90.332 OFFCURVE",
"117.407 54.932 CURVE",
"152.82 19.507 OFFCURVE",
"199.915 0 OFFCURVE",
"250 0 CURVE",
"300.085 0 OFFCURVE",
"347.18 19.507 OFFCURVE",
"382.581 54.932 CURVE",
"437.5 109.839 LINE",
"547.345 0 LINE",
"724.121 0 LINE",
"525.891 198.218 LINE",
"658.475 330.801 LINE",
"570.085 419.193 LINE"
);
},
{
closed = 1;
nodes = (
"217.615 618.506 OFFCURVE",
"233.313 625 OFFCURVE",
"250 625 CURVE",
"266.687 625 OFFCURVE",
"282.385 618.506 OFFCURVE",
"294.202 606.689 CURVE",
"306.006 594.873 OFFCURVE",
"312.5 579.199 OFFCURVE",
"312.5 562.5 CURVE",
"312.5 545.801 OFFCURVE",
"306.006 530.127 OFFCURVE",
"294.202 518.31 CURVE",
"252.454 471.655 LINE",
"205.798 518.31 LINE",
"193.994 530.127 OFFCURVE",
"187.5 545.801 OFFCURVE",
"187.5 562.5 CURVE",
"187.5 579.199 OFFCURVE",
"193.994 594.873 OFFCURVE",
"205.811 606.689 CURVE"
);
},
{
closed = 1;
nodes = (
"270.581 119.678 OFFCURVE",
"229.431 119.678 OFFCURVE",
"205.798 143.31 CURVE",
"193.994 155.127 OFFCURVE",
"187.5 170.801 OFFCURVE",
"187.5 187.5 CURVE",
"187.5 204.199 OFFCURVE",
"193.994 219.873 OFFCURVE",
"205.798 231.69 CURVE",
"257.654 289.673 LINE",
"349.109 198.218 LINE",
"294.189 143.31 LINE"
);
}
);
width = 775;
}
);
leftKerningGroup = "8";
unicode = 0026;
},
{
glyphname = copyright;
lastChange = "2018-12-09 14:56:48 +0000";
layers = (
{
components = (
{
name = c;
transform = "{1, 0, 0, 1, 250, 0}";
}
);
layerId = "156A2E6C-2CEB-4630-8DE9-705D0EDBB142";
paths = (
{
closed = 1;
nodes = (
"62.5 158.75 OFFCURVE",
"87.5 73.75 OFFCURVE",
"130 0 CURVE",
"283.75 0 LINE",
"224.375 66.25 OFFCURVE",
"187.5 153.75 OFFCURVE",
"187.5 250 CURVE SMOOTH",
"187.5 346.25 OFFCURVE",
"224.375 433.75 OFFCURVE",
"283.75 500 CURVE",
"130 500 LINE",
"87.5 426.25 OFFCURVE",
"62.5 341.25 OFFCURVE",
"62.5 250 CURVE SMOOTH"
);
},
{
closed = 1;
nodes = (
"995 0 LINE",
"1038.125 73.75 OFFCURVE",
"1062.5 158.75 OFFCURVE",
"1062.5 250 CURVE SMOOTH",
"1062.5 341.25 OFFCURVE",
"1038.125 426.25 OFFCURVE",
"995 500 CURVE",
"841.875 500 LINE",
"901.25 433.75 OFFCURVE",
"937.5 346.25 OFFCURVE",
"937.5 250 CURVE SMOOTH",
"937.5 153.75 OFFCURVE",
"901.25 66.25 OFFCURVE",
"841.875 0 CURVE"
);
}
);
width = 1125;
}
);
leftKerningGroup = a;
rightKerningGroup = o;
unicode = 00A9;
},
{
glyphname = registered;
lastChange = "2018-12-09 14:56:48 +0000";
layers = (
{
layerId = "156A2E6C-2CEB-4630-8DE9-705D0EDBB142";
paths = (
{
closed = 1;
nodes = (
"62.5 158.75 OFFCURVE",
"87.5 73.75 OFFCURVE",
"130 0 CURVE",
"283.75 0 LINE",
"224.375 66.25 OFFCURVE",
"187.5 153.75 OFFCURVE",
"187.5 250 CURVE SMOOTH",
"187.5 346.25 OFFCURVE",
"224.375 433.75 OFFCURVE",
"283.75 500 CURVE",
"130 500 LINE",
"87.5 426.25 OFFCURVE",
"62.5 341.25 OFFCURVE",
"62.5 250 CURVE SMOOTH"
);
},
{
closed = 1;
nodes = (
"1120 0 LINE",
"1163.125 73.75 OFFCURVE",
"1187.5 158.75 OFFCURVE",
"1187.5 250 CURVE SMOOTH",
"1187.5 341.25 OFFCURVE",
"1163.125 426.25 OFFCURVE",
"1120 500 CURVE",
"966.875 500 LINE",
"1026.25 433.75 OFFCURVE",
"1062.5 346.25 OFFCURVE",
"1062.5 250 CURVE SMOOTH",
"1062.5 153.75 OFFCURVE",
"1026.25 66.25 OFFCURVE",
"966.875 0 CURVE"
);
},
{
closed = 1;
nodes = (
"760.934 139.951 LINE",
"827.985 168.523 OFFCURVE",
"875 235.013 OFFCURVE",
"875 312.5 CURVE",
"875 416.054 OFFCURVE",
"791.054 500 OFFCURVE",
"687.5 500 CURVE",
"375 500 LINE",
"375 0 LINE",
"500 0 LINE",
"500 125 LINE",
"599.118 125 LINE",
"724.113 0 LINE",
"900.879 0 LINE"
);
},
{
closed = 1;
nodes = (
"687.5 375 LINE",
"722.018 375 OFFCURVE",
"750 347.018 OFFCURVE",
"750 312.5 CURVE",
"750 277.982 OFFCURVE",
"722.018 250 OFFCURVE",
"687.5 250 CURVE",
"500 250 LINE",
"500 375 LINE"
);
}
);
width = 1250;
}
);
leftKerningGroup = a;
rightKerningGroup = o;
unicode = 00AE;
},
{
glyphname = dieresiscomb;
lastChange = "2018-09-20 06:15:12 +0000";
layers = (
{
layerId = "156A2E6C-2CEB-4630-8DE9-705D0EDBB142";
paths = (
{
closed = 1;
nodes = (
"187.5 621.732 OFFCURVE",
"159.518 593.75 OFFCURVE",
"125 593.75 CURVE",
"90.482 593.75 OFFCURVE",
"62.5 621.732 OFFCURVE",
"62.5 656.25 CURVE",
"62.5 690.768 OFFCURVE",
"90.482 718.75 OFFCURVE",
"125 718.75 CURVE",
"159.518 718.75 OFFCURVE",
"187.5 690.768 OFFCURVE",
"187.5 656.25 CURVE"
);
},
{
closed = 1;
nodes = (
"340.482 718.75 OFFCURVE",
"312.5 690.768 OFFCURVE",
"312.5 656.25 CURVE",
"312.5 621.732 OFFCURVE",
"340.482 593.75 OFFCURVE",
"375 593.75 CURVE",
"409.518 593.75 OFFCURVE",
"437.5 621.732 OFFCURVE",
"437.5 656.25 CURVE",
"437.5 690.768 OFFCURVE",
"409.518 718.75 OFFCURVE",
"375 718.75 CURVE"
);
}
);
width = 500;
}
);
unicode = 0308;
},
{
glyphname = dotaccentcomb;
lastChange = "2018-09-20 06:15:21 +0000";
layers = (
{
layerId = "156A2E6C-2CEB-4630-8DE9-705D0EDBB142";
paths = (
{
closed = 1;
nodes = (
"312.5 621.732 OFFCURVE",
"284.518 593.75 OFFCURVE",
"250 593.75 CURVE",
"215.482 593.75 OFFCURVE",
"187.5 621.732 OFFCURVE",
"187.5 656.25 CURVE",
"187.5 690.768 OFFCURVE",
"215.482 718.75 OFFCURVE",
"250 718.75 CURVE",
"284.518 718.75 OFFCURVE",
"312.5 690.768 OFFCURVE",
"312.5 656.25 CURVE"
);
}
);
width = 500;
}
);
unicode = 0307;
},
{
glyphname = gravecomb;
lastChange = "2018-10-22 11:26:20 +0000";
layers = (
{
layerId = "156A2E6C-2CEB-4630-8DE9-705D0EDBB142";
paths = (
{
closed = 1;
nodes = (
"308.593 562.5 LINE",
"238.305 750 LINE",
"150.98 750 LINE",
"197.843 562.5 LINE"
);
}
);
width = 500;
}
);
unicode = 0300;
},
{
glyphname = acutecomb;
lastChange = "2018-10-22 11:27:10 +0000";
layers = (
{
layerId = "156A2E6C-2CEB-4630-8DE9-705D0EDBB142";
paths = (
{
closed = 1;
nodes = (
"303.117 562.5 LINE",
"349.978 750 LINE",
"262.653 750 LINE",
"192.365 562.5 LINE"
);
}
);
width = 500;
}
);
unicode = 0301;
},
{
glyphname = hungarumlautcomb;
lastChange = "2018-10-22 11:28:08 +0000";
layers = (
{
layerId = "156A2E6C-2CEB-4630-8DE9-705D0EDBB142";
paths = (
{
closed = 1;
nodes = (
"231.86 750 LINE",
"169.385 562.5 LINE",
"66.436 562.5 LINE",
"152.361 750 LINE"
);
},
{
closed = 1;
nodes = (
"372.511 562.5 LINE",
"411.536 750 LINE",
"332.036 750 LINE",
"269.561 562.5 LINE"
);
}
);
width = 500;
}
);
unicode = 030B;
},
{
glyphname = circumflexcomb;
lastChange = "2018-10-22 11:28:48 +0000";
layers = (
{
layerId = "156A2E6C-2CEB-4630-8DE9-705D0EDBB142";
paths = (
{
closed = 1;
nodes = (
"193.963 750 LINE",
"76.775 562.5 LINE",
"173.225 562.5 LINE",
"250 662.038 LINE",
"326.775 562.5 LINE",
"423.225 562.5 LINE",
"306.037 750 LINE"
);
}
);
width = 500;
}
);
unicode = 0302;
},
{
glyphname = brevecomb;
lastChange = "2018-10-22 11:29:30 +0000";
layers = (
{
layerId = "156A2E6C-2CEB-4630-8DE9-705D0EDBB142";
paths = (
{
closed = 1;
nodes = (
"151.77 571.875 OFFCURVE",
"78.125 643.974 OFFCURVE",
"78.125 750 CURVE",
"170.3 750 LINE",
"170.3 702.677 OFFCURVE",
"205.17 670.312 OFFCURVE",
"249.988 670.312 CURVE",
"297.874 670.312 OFFCURVE",
"329.675 702.065 OFFCURVE",
"329.675 750 CURVE",
"421.875 750 LINE",
"421.875 639.919 OFFCURVE",
"348.205 571.875 OFFCURVE",
"249.988 571.875 CURVE"
);
}
);
width = 500;
}
);
unicode = 0306;
},
{
glyphname = ringcomb;
lastChange = "2018-09-20 06:16:17 +0000";
layers = (
{
layerId = "156A2E6C-2CEB-4630-8DE9-705D0EDBB142";
paths = (
{
closed = 1;
nodes = (
"263.785 681.25 OFFCURVE",
"275 670.035 OFFCURVE",
"275 656.25 CURVE",
"275 642.465 OFFCURVE",
"263.785 631.25 OFFCURVE",
"250 631.25 CURVE",
"236.215 631.25 OFFCURVE",
"225 642.465 OFFCURVE",
"225 656.25 CURVE",
"225 670.035 OFFCURVE",
"236.215 681.25 OFFCURVE",
"250 681.25 CURVE"
);
},
{
closed = 1;
nodes = (
"198.224 750 OFFCURVE",
"156.25 708.027 OFFCURVE",
"156.25 656.25 CURVE",
"156.25 604.473 OFFCURVE",
"198.224 562.5 OFFCURVE",
"250 562.5 CURVE",
"301.776 562.5 OFFCURVE",
"343.75 604.473 OFFCURVE",
"343.75 656.25 CURVE",
"343.75 708.027 OFFCURVE",
"301.776 750 OFFCURVE",
"250 750 CURVE"
);
}
);
width = 500;
}
);
unicode = 030A;
},
{
glyphname = tildecomb;
lastChange = "2018-10-22 11:10:51 +0000";
layers = (
{
layerId = "156A2E6C-2CEB-4630-8DE9-705D0EDBB142";
paths = (
{
closed = 1;
nodes = (
"94.987 651.097 LINE",
"122.184 691.282 OFFCURVE",
"163.127 723.657 OFFCURVE",
"222.792 723.657 CURVE",
"287.896 723.657 OFFCURVE",
"328.687 687.141 OFFCURVE",
"370.1 687.141 CURVE",
"390.588 687.141 OFFCURVE",
"417.428 700.412 OFFCURVE",
"428.038 715.775 CURVE",
"505.013 670.159 LINE",
"482.644 625.266 OFFCURVE",
"433.772 588.135 OFFCURVE",
"380.773 588.135 CURVE",
"325.636 588.135 OFFCURVE",
"286.419 626.157 OFFCURVE",
"233.266 626.157 CURVE",
"213.438 626.157 OFFCURVE",
"179.75 614.912 OFFCURVE",
"164.903 598.675 CURVE"
);
}
);
width = 600;
}
);
unicode = 0303;
},
{
glyphname = macroncomb;
lastChange = "2018-10-22 11:38:33 +0000";
layers = (
{
layerId = "156A2E6C-2CEB-4630-8DE9-705D0EDBB142";
paths = (
{
closed = 1;
nodes = (
"125 611.25 LINE",
"125 701.25 LINE",
"375 701.25 LINE",
"375 611.25 LINE"
);
}
);
width = 500;
}
);
unicode = 0304;
},
{
glyphname = commaaccentcomb;
lastChange = "2018-10-22 11:31:43 +0000";
layers = (
{
layerId = "156A2E6C-2CEB-4630-8DE9-705D0EDBB142";
paths = (
{
closed = 1;
nodes = (
"237.7 -250 LINE",
"307.988 -62.5 LINE",
"197.235 -62.5 LINE",
"150.375 -250 LINE"
);
}
);
width = 500;
}
);
unicode = 0326;
},
{
glyphname = cedillacomb;
lastChange = "2018-10-22 10:56:00 +0000";
layers = (
{
layerId = "156A2E6C-2CEB-4630-8DE9-705D0EDBB142";
paths = (
{
closed = 1;
nodes = (
"265.34 -34.446 LINE",
"276.174 66.704 LINE",
"223.754 66.704 LINE",
"188.247 -93.397 LINE",
"294.153 -93.397 LINE",
"324.289 -93.397 OFFCURVE",
"337.388 -110.946 OFFCURVE",
"337.388 -126.919 CURVE",
"337.388 -144.822 OFFCURVE",
"324.315 -160.532 OFFCURVE",
"300.351 -160.532 CURVE",
"165.487 -160.532 LINE",
"144.526 -250 LINE",
"298.951 -250 LINE",
"361.95 -250 OFFCURVE",
"415.474 -215.313 OFFCURVE",
"415.474 -137.508 CURVE",
"415.474 -80.754 OFFCURVE",
"365.755 -34.446 OFFCURVE",
"300.351 -34.446 CURVE"
);
}
);
width = 500;
}
);
unicode = 0327;
},
{
glyphname = ogonekcomb;
lastChange = "2018-10-22 11:02:37 +0000";
layers = (
{
layerId = "156A2E6C-2CEB-4630-8DE9-705D0EDBB142";
paths = (
{
closed = 1;
nodes = (
"219.55 -30.472 OFFCURVE",
"194.548 -78.407 OFFCURVE",
"194.548 -122.923 CURVE",
"194.548 -190.725 OFFCURVE",
"257.269 -250 OFFCURVE",
"375.914 -250 CURVE",
"387.673 -250 LINE",
"387.673 -150 LINE",
"345.511 -150 OFFCURVE",
"306.003 -131.495 OFFCURVE",
"306.003 -93.31 CURVE",
"306.003 -47.883 OFFCURVE",
"347.063 -18.118 OFFCURVE",
"387.673 0 CURVE",
"262.673 0 LINE"
);
}
);
width = 600;
}
);
unicode = 0328;
},
{
export = 0;
glyphname = _global;
lastChange = "2018-09-17 06:11:23 +0000";
layers = (
{
layerId = "156A2E6C-2CEB-4630-8DE9-705D0EDBB142";
paths = (
{
closed = 1;
nodes = (
"62.5 111.928 OFFCURVE",
"174.428 0 OFFCURVE",
"312.5 0 CURVE SMOOTH",
"450.572 0 OFFCURVE",
"562.5 111.928 OFFCURVE",
"562.5 250 CURVE SMOOTH",
"562.5 388.072 OFFCURVE",
"450.572 500 OFFCURVE",
"312.5 500 CURVE SMOOTH",
"174.428 500 OFFCURVE",
"62.5 388.072 OFFCURVE",
"62.5 250 CURVE SMOOTH"
);
},
{
closed = 1;
nodes = (
"187.5 319.036 OFFCURVE",
"243.464 375 OFFCURVE",
"312.5 375 CURVE SMOOTH",
"381.536 375 OFFCURVE",
"437.5 319.036 OFFCURVE",
"437.5 250 CURVE SMOOTH",
"437.5 180.964 OFFCURVE",
"381.536 125 OFFCURVE",
"312.5 125 CURVE SMOOTH",
"243.464 125 OFFCURVE",
"187.5 180.964 OFFCURVE",
"187.5 250 CURVE SMOOTH"
);
},
{
closed = 0;
nodes = (
"62.5 750 LINE",
"62.5 -250 LINE"
);
},
{
closed = 0;
nodes = (
"187.5 750 LINE",
"187.5 -250 LINE"
);
},
{
closed = 0;
nodes = (
"437.5 750 LINE",
"437.5 -250 LINE"
);
},
{
closed = 0;
nodes = (
"562.5 750 LINE",
"562.5 -250 LINE"
);
},
{
closed = 0;
nodes = (
"625 750 LINE",
"625 -250 LINE"
);
},
{
closed = 0;
nodes = (
"0 500 LINE",
"750 500 LINE"
);
},
{
closed = 0;
nodes = (
"0 375 LINE",
"750 375 LINE"
);
},
{
closed = 0;
nodes = (
"0 125 LINE",
"750 125 LINE"
);
},
{
closed = 0;
nodes = (
"0 0 LINE",
"750 0 LINE"
);
},
{
closed = 0;
nodes = (
"0 625 LINE",
"750 625 LINE"
);
},
{
closed = 0;
nodes = (
"0 -125 LINE",
"750 -125 LINE"
);
},
{
closed = 0;
nodes = (
"312.5 750 LINE",
"312.5 -250 LINE"
);
}
);
width = 750;
}
);
},
{
export = 0;
glyphname = "curve-2.comp";
lastChange = "2018-09-17 06:11:23 +0000";
layers = (
{
layerId = "156A2E6C-2CEB-4630-8DE9-705D0EDBB142";
paths = (
{
closed = 1;
nodes = (
"0 125 LINE",
"68.75 125 OFFCURVE",
"125 68.75 OFFCURVE",
"125 0 CURVE",
"250 0 LINE",
"250 138.125 OFFCURVE",
"138.125 250 OFFCURVE",
"0 250 CURVE"
);
}
);
width = 250;
}
);
},
{
export = 0;
glyphname = "curve-1.comp";
lastChange = "2018-09-17 06:11:23 +0000";
layers = (
{
layerId = "156A2E6C-2CEB-4630-8DE9-705D0EDBB142";
paths = (
{
closed = 1;
nodes = (
"0 0 LINE",
"125 0 LINE",
"125 68.75 OFFCURVE",
"68.75 125 OFFCURVE",
"0 125 CURVE"
);
}
);
width = 125;
}
);
},
{
export = 0;
glyphname = "curve-1.5.comp";
lastChange = "2018-09-17 06:11:23 +0000";
layers = (
{
layerId = "156A2E6C-2CEB-4630-8DE9-705D0EDBB142";
paths = (
{
closed = 1;
nodes = (
"0 62.5 LINE",
"34.375 62.5 OFFCURVE",
"62.5 34.375 OFFCURVE",
"62.5 0 CURVE",
"187.5 0 LINE",
"187.5 103.75 OFFCURVE",
"103.75 187.5 OFFCURVE",
"0 187.5 CURVE"
);
}
);
width = 187.5;
}
);
},
{
export = 0;
glyphname = "curve-2.5.comp";
lastChange = "2018-09-17 06:11:23 +0000";
layers = (
{
layerId = "156A2E6C-2CEB-4630-8DE9-705D0EDBB142";
paths = (
{
closed = 1;
nodes = (
"0 187.5 LINE",
"103.75 187.5 OFFCURVE",
"187.5 103.75 OFFCURVE",
"187.5 0 CURVE",
"312.5 0 LINE",
"312.5 172.5 OFFCURVE",
"172.5 312.5 OFFCURVE",
"0 312.5 CURVE"
);
}
);
width = 312.5;
}
);
},
{
export = 0;
glyphname = "curve-3.comp";
lastChange = "2018-09-17 06:11:23 +0000";
layers = (
{
layerId = "156A2E6C-2CEB-4630-8DE9-705D0EDBB142";
paths = (
{
closed = 1;
nodes = (
"0 250 LINE",
"138.125 250 OFFCURVE",
"250 138.125 OFFCURVE",
"250 0 CURVE",
"375 0 LINE",
"375 206.875 OFFCURVE",
"206.875 375 OFFCURVE",
"0 375 CURVE"
);
}
);
width = 375;
}
);
},
{
export = 0;
glyphname = "curve-4.comp";
lastChange = "2018-09-17 06:11:23 +0000";
layers = (
{
layerId = "156A2E6C-2CEB-4630-8DE9-705D0EDBB142";
paths = (
{
closed = 1;
nodes = (
"0 375 LINE",
"206.875 375 OFFCURVE",
"375 206.875 OFFCURVE",
"375 0 CURVE",
"500 0 LINE",
"500 276.25 OFFCURVE",
"276.25 500 OFFCURVE",
"0 500 CURVE"
);
}
);
width = 500;
}
);
},
{
export = 0;
glyphname = "oval-half-clip45.comp";
lastChange = "2018-09-17 06:11:23 +0000";
layers = (
{
layerId = "156A2E6C-2CEB-4630-8DE9-705D0EDBB142";
paths = (
{
closed = 1;
nodes = (
"426.875 176.875 LINE",
"381.25 221.875 OFFCURVE",
"318.75 250 OFFCURVE",
"250 250 CURVE",
"111.875 250 OFFCURVE",
"0 138.125 OFFCURVE",
"0 0 CURVE",
"125 0 LINE",
"125 68.75 OFFCURVE",
"181.25 125 OFFCURVE",
"250 125 CURVE",
"284.375 125 OFFCURVE",
"315.625 111.25 OFFCURVE",
"338.125 88.125 CURVE"
);
}
);
width = 500;
}
);
},
{
export = 0;
glyphname = "oval-half.comp";
lastChange = "2018-09-17 06:11:23 +0000";
layers = (
{
layerId = "156A2E6C-2CEB-4630-8DE9-705D0EDBB142";
paths = (
{
closed = 1;
nodes = (
"318.75 125 OFFCURVE",
"375 68.75 OFFCURVE",
"375 0 CURVE",
"500 0 LINE",
"500 138.125 OFFCURVE",
"388.125 250 OFFCURVE",
"250 250 CURVE",
"111.875 250 OFFCURVE",
"0 138.125 OFFCURVE",
"0 0 CURVE",
"125 0 LINE",
"125 68.75 OFFCURVE",
"181.25 125 OFFCURVE",
"250 125 CURVE"
);
}
);
width = 500;
}
);
},
{
export = 0;
glyphname = "rect-50.comp";
lastChange = "2018-09-17 06:11:23 +0000";
layers = (
{
layerId = "156A2E6C-2CEB-4630-8DE9-705D0EDBB142";
paths = (
{
closed = 1;
nodes = (
"0 0 LINE",
"125 0 LINE",
"125 62.5 LINE",
"0 62.5 LINE"
);
}
);
width = 125;
}
);
},
{
export = 0;
glyphname = "rect-200.comp";
lastChange = "2018-09-17 06:11:23 +0000";
layers = (
{
layerId = "156A2E6C-2CEB-4630-8DE9-705D0EDBB142";
paths = (
{
closed = 1;
nodes = (
"0 0 LINE",
"125 0 LINE",
"125 250 LINE",
"0 250 LINE"
);
}
);
width = 125;
}
);
},
{
export = 0;
glyphname = "curve-1.5-clip45.comp";
lastChange = "2018-09-17 06:11:23 +0000";
layers = (
{
layerId = "156A2E6C-2CEB-4630-8DE9-705D0EDBB142";
paths = (
{
closed = 1;
nodes = (
"98.75 166.875 OFFCURVE",
"51.875 187.5 OFFCURVE",
"0 187.5 CURVE",
"0 62.5 LINE",
"17.5 62.5 OFFCURVE",
"33.125 55.625 OFFCURVE",
"44.375 44.375 CURVE",
"132.5 132.5 LINE"
);
}
);
width = 187.5;
}
);
},
{
export = 0;
glyphname = "curve-2-clip45.comp";
lastChange = "2018-09-17 06:11:23 +0000";
layers = (
{
layerId = "156A2E6C-2CEB-4630-8DE9-705D0EDBB142";
paths = (
{
closed = 1;
nodes = (
"0 125 LINE",
"34.375 125 OFFCURVE",
"65.625 111.25 OFFCURVE",
"88.125 88.125 CURVE",
"176.875 176.875 LINE",
"131.25 221.875 OFFCURVE",
"68.75 250 OFFCURVE",
"0 250 CURVE"
);
}
);
width = 250;
}
);
},
{
export = 0;
glyphname = "curve-3-clip45.comp";
lastChange = "2018-09-17 06:11:23 +0000";
layers = (
{
layerId = "156A2E6C-2CEB-4630-8DE9-705D0EDBB142";
paths = (
{
closed = 1;
nodes = (
"178.125 340.625 OFFCURVE",
"93.125 375 OFFCURVE",
"0 375 CURVE",
"0 250 LINE",
"61.875 250 OFFCURVE",
"118.75 227.5 OFFCURVE",
"162.5 189.375 CURVE",
"243.75 284.375 LINE"
);
}
);
width = 375;
}
);
},
{
export = 0;
glyphname = "curve-1.75";
lastChange = "2018-09-17 06:11:23 +0000";
layers = (
{
layerId = "156A2E6C-2CEB-4630-8DE9-705D0EDBB142";
paths = (
{
closed = 1;
nodes = (
"0 93.75 LINE",
"51.875 93.75 OFFCURVE",
"93.75 51.875 OFFCURVE",
"93.75 0 CURVE",
"218.75 0 LINE",
"218.75 120.625 OFFCURVE",
"120.625 218.75 OFFCURVE",
"0 218.75 CURVE"
);
}
);
width = 218.75;
}
);
},
{
export = 0;
glyphname = "curve-1.75-clip45.comp";
lastChange = "2018-09-17 06:11:23 +0000";
layers = (
{
layerId = "156A2E6C-2CEB-4630-8DE9-705D0EDBB142";
paths = (
{
closed = 1;
nodes = (
"0 93.75 LINE",
"25.625 93.75 OFFCURVE",
"49.375 83.125 OFFCURVE",
"66.25 66.25 CURVE",
"154.375 154.375 LINE",
"115 193.75 OFFCURVE",
"60 218.75 OFFCURVE",
"0 218.75 CURVE"
);
}
